<?xml version="1.0" encoding="UTF-8"?><svg id="a" xmlns="http://www.w3.org/2000/svg" width="17.79in" height="7.07in" xmlns:xlink="http://www.w3.org/1999/xlink" viewBox="0 0 1280.75 509.3"><defs><style>.k{fill:#f9d46b;}.l{font-size:60px;}.l,.m{fill:#2a8bdf;}.n{font-family:Magistral-Bold, Magistral;stroke:#000;}.n,.o{stroke-miterlimit:10;}.p{letter-spacing:0em;}.q{fill:#c59221;}.r{opacity:.95;}.s{fill:#ffb411;}.t,.u{fill:#333;}.o{fill:none;stroke:#003976;stroke-width:5px;}.v{filter:url(#h);}.w{letter-spacing:0em;}.x{fill:#b8830f;}.y{fill:#a3710c;}.a`{fill:#cd9615;}.u{font-size:155px;}</style><filter id="h" filterUnits="userSpaceOnUse"><feOffset dx="7" dy="7"/><feGaussianBlur result="i" stdDeviation="5"/><feFlood flood-color="#a3710c" flood-opacity=".75"/><feComposite in2="i" operator="in"/><feComposite in="SourceGraphic"/></filter></defs><g id="b"><g id="c"><circle cx="254.65" cy="254.65" r="245.88" fill="#2a8bdf"/></g><g id="d" opacity=".95"><circle cx="149.13" cy="261.72" r="6.45" fill="none" stroke="#003976" stroke-miterlimit="10" stroke-width="5"/><circle cx="172.06" cy="280.83" r="6.45" fill="none" stroke="#003976" stroke-miterlimit="10" stroke-width="5"/><circle cx="194.73" cy="447.93" r="6.45" fill="none" stroke="#003976" stroke-miterlimit="10" stroke-width="5"/><circle cx="81.51" cy="151.52" r="6.45" fill="none" stroke="#003976" stroke-miterlimit="10" stroke-width="5"/><circle cx="35.14" cy="226.97" r="6.45" fill="none" stroke="#003976" stroke-miterlimit="10" stroke-width="5"/><circle cx="289.28" cy="135.15" r="6.45" fill="none" stroke="#003976" stroke-miterlimit="10" stroke-width="5"/><circle cx="378.85" cy="135.58" r="6.45" fill="none" stroke="#003976" stroke-miterlimit="10" stroke-width="5"/><circle cx="355.57" cy="207.66" r="6.45" fill="none" stroke="#003976" stroke-miterlimit="10" stroke-width="5"/><circle cx="355.57" cy="261.6" r="6.45" fill="none" stroke="#003976" stroke-miterlimit="10" stroke-width="5"/><circle cx="447.54" cy="281.31" r="6.45" fill="none" stroke="#003976" stroke-miterlimit="10" stroke-width="5"/><circle cx="424.49" cy="299.87" r="6.45" fill="none" stroke="#003976" stroke-miterlimit="10" stroke-width="5"/><circle cx="493.65" cy="225.64" r="6.45" fill="none" stroke="#003976" stroke-miterlimit="10" stroke-width="5"/><circle cx="446.5" cy="170.3" r="6.45" fill="none" stroke="#003976" stroke-miterlimit="10" stroke-width="5"/><line x1="171.88" y1="20.57" x2="171.88" y2="154.05" fill="none" stroke="#003976" stroke-miterlimit="10" stroke-width="5"/><polyline points="194.62 16.17 194.62 116.64 194.62 160.6 217.06 160.6 217.06 207.66 194.73 207.66 194.73 217.15 194.73 441.48" fill="none" stroke="#003976" stroke-miterlimit="10" stroke-width="5"/><polyline points="126.39 47.7 126.39 113.88 52.55 113.88" fill="none" stroke="#003976" stroke-miterlimit="10" stroke-width="5"/><circle cx="100.83" cy="98.66" r="6.45" fill="none" stroke="#003976" stroke-miterlimit="10" stroke-width="5"/><polyline points="80.78 77.92 100.83 77.92 100.83 92.21" fill="none" stroke="#003976" stroke-miterlimit="10" stroke-width="5"/><polyline points="23.58 170.43 81.51 170.43 81.51 157.98" fill="none" stroke="#003976" stroke-miterlimit="10" stroke-width="5"/><line x1="17.66" y1="188.87" x2="172.06" y2="188.87" fill="none" stroke="#003976" stroke-miterlimit="10" stroke-width="5"/><polyline points="12.36 207.32 57.54 207.32 57.54 261.72 142.68 261.72" fill="none" stroke="#003976" stroke-miterlimit="10" stroke-width="5"/><line x1="35.14" y1="349.01" x2="35.14" y2="233.43" fill="none" stroke="#003976" stroke-miterlimit="10" stroke-width="5"/><polyline points="32.24 336.1 172.06 336.1 172.06 287.28" fill="none" stroke="#003976" stroke-miterlimit="10" stroke-width="5"/><line x1="385.3" y1="463.66" x2="226.59" y2="463.66" fill="none" stroke="#003976" stroke-miterlimit="10" stroke-width="5"/><circle cx="220.9" cy="463.66" r="6.45" fill="none" stroke="#003976" stroke-miterlimit="10" stroke-width="5"/><circle cx="286.99" cy="429.54" r="6.45" fill="none" stroke="#003976" stroke-miterlimit="10" stroke-width="5"/><polyline points="479.02 355.31 355.57 355.31 355.57 268.06" fill="none" stroke="#003976" stroke-miterlimit="10" stroke-width="5"/><polyline points="490.49 336.1 378.85 336.1 378.85 244.78 309.58 244.78 309.58 8.75" fill="none" stroke="#003976" stroke-miterlimit="10" stroke-width="5"/><polyline points="493.65 317.97 401.32 317.97 401.32 225.64 333.09 225.64 333.09 26.75" fill="none" stroke="#003976" stroke-miterlimit="10" stroke-width="5"/><line x1="355.57" y1="33.21" x2="355.57" y2="201.21" fill="none" stroke="#003976" stroke-miterlimit="10" stroke-width="5"/><line x1="378.85" y1="42.43" x2="378.85" y2="129.12" fill="none" stroke="#003976" stroke-miterlimit="10" stroke-width="5"/><polyline points="470.48 134.22 470.48 170.3 452.95 170.3" fill="none" stroke="#003976" stroke-miterlimit="10" stroke-width="5"/><line x1="424.49" y1="88.36" x2="424.49" y2="293.42" fill="none" stroke="#003976" stroke-miterlimit="10" stroke-width="5"/><polyline points="487.19 225.64 447.32 225.64 447.32 274.86" fill="none" stroke="#003976" stroke-miterlimit="10" stroke-width="5"/><polyline points="380.12 355.31 380.12 429.54 293.44 429.54" fill="none" stroke="#003976" stroke-miterlimit="10" stroke-width="5"/><polyline points="262.09 407.41 262.09 447.93 404.66 447.93" fill="none" stroke="#003976" stroke-miterlimit="10" stroke-width="5"/><polyline points="311.7 484.86 194.73 484.86 194.73 454.39" fill="none" stroke="#003976" stroke-miterlimit="10" stroke-width="5"/><polyline points="124.85 469.63 124.85 429.54 124.85 354.67" fill="none" stroke="#003976" stroke-miterlimit="10" stroke-width="5"/><line x1="289.09" y1="14.78" x2="289.09" y2="128.7" fill="none" stroke="#003976" stroke-miterlimit="10" stroke-width="5"/></g><g id="e"><path d="M254.65,22.76c30.12,0,59.48,5.71,87.27,16.98,28.76,11.66,54.56,28.8,76.7,50.94s39.28,47.95,50.94,76.7c11.27,27.78,16.98,57.14,16.98,87.27s-5.71,59.48-16.98,87.27c-11.66,28.76-28.8,54.56-50.94,76.7s-47.95,39.28-76.7,50.94c-27.78,11.27-57.14,16.98-87.27,16.98s-59.48-5.71-87.27-16.98c-28.76-11.66-54.56-28.8-76.7-50.94s-39.28-47.95-50.94-76.7c-11.27-27.78-16.98-57.14-16.98-87.27s5.71-59.48,16.98-87.27c11.66-28.76,28.8-54.56,50.94-76.7s47.95-39.28,76.7-50.94c27.78-11.27,57.14-16.98,87.27-16.98m0-14c-62.93,0-125.85,24.01-173.87,72.02-96.02,96.02-96.02,251.71,0,347.73,48.01,48.01,110.94,72.02,173.87,72.02s125.85-24.01,173.87-72.02c96.02-96.02,96.02-251.71,0-347.73C380.5,32.77,317.57,8.76,254.65,8.76h0Z" fill="#ffb411"/></g><g id="f"><path d="M254.65,10c62.61,0,125.22,23.89,172.99,71.66,95.54,95.54,95.54,250.44,0,345.98-47.77,47.77-110.38,71.66-172.99,71.66s-125.22-23.89-172.99-71.66c-95.54-95.54-95.54-250.44,0-345.98C129.43,33.89,192.04,10,254.65,10m0-10c-33.07,0-65.31,6.27-95.82,18.65-31.59,12.81-59.94,31.63-84.24,55.94-24.31,24.31-43.13,52.65-55.94,84.24C6.27,189.34,0,221.58,0,254.65s6.27,65.31,18.65,95.82c12.81,31.59,31.63,59.94,55.94,84.24,24.31,24.31,52.65,43.13,84.24,55.94,30.51,12.37,62.75,18.65,95.82,18.65s65.31-6.27,95.82-18.65c31.6-12.81,59.94-31.63,84.24-55.94,24.31-24.31,43.13-52.65,55.94-84.24,12.37-30.51,18.65-62.75,18.65-95.82s-6.27-65.31-18.65-95.82c-12.81-31.6-31.63-59.94-55.94-84.24-24.31-24.31-52.65-43.13-84.24-55.94C319.95,6.27,287.72,0,254.65,0h0Z" fill="#333"/></g></g><g id="g"><path d="M252.49,427.17l-1.83-2.31c-5.47-6.51-11.88-11.7-19.07-15.43-5.94-2.97-12.84-5.17-20.47-6.51-9.35-2.02-17.9-4.48-25.51-7.35-.29,3.09-1.13,5.76-2.61,8.33-2.26,3.94-5.71,6.17-9.73,6.27h-.24c-3.82,0-7.39-2.04-9.59-5.46-2.07-3.51-1.41-7.34-.51-10.73-1.22-3.27-1.15-6.27,.25-9.7-3.41-2.31-6.53-4.78-9.29-7.37-.32-.29-.64-.61-.96-.92l-.63-.62c-.22-.21-.44-.43-.66-.66-1.24-1.25-2.29-2.41-3.22-3.51-3.03-3.61-5.6-7.55-7.64-11.74-4.24,2.03-8.56,4.2-12.85,6.44-.6,.31-1.25,.46-1.9,.46h-1l-.49-.29c-.07-.03-.14-.06-.22-.09h-1.53l-.63-2.31-.21-.43v-.37c-5.99-22.62-1.29-48.88,13.25-73.96,.56-.98,1.53-1.7,2.66-1.95,.26-.06,.58-.1,.89-.1,.81,0,1.6,.24,2.28,.69l3.61,2.42,.26,.3c.18,.19,.33,.39,.47,.59l.24,.29,.22,.63c5.34,16.4,14.2,30.89,26.36,43.11l.43,.43,.19,.4c.09,.15,.18,.33,.27,.54,.05,.11,.11,.29,.16,.49l.12,.34,.02,.64v5.14c0,1.71-1.08,3.26-2.69,3.85-.7,.25-1.42,.52-2.16,.8,4.26,3.21,8.9,6,13.62,8.16,.26-.28,.54-.55,.84-.81,.14-3.51,1.82-8.03,8.24-11.49,.61-3.97,2.95-8.9,10.11-11.92,2.63-5.85,6.91-9.5,12.46-10.64,.55-2.12,1.58-3.94,3.09-5.43,2.65-2.62,6.57-4.08,11.98-4.44,1.23-2.69,3.5-4.67,6.76-5.9v-63.31c-.58-.19-1.14-.44-1.69-.76-1.4,.62-2.94,.95-4.51,.95-.56,0-1.11-.04-1.65-.12-1.98-.3-3.8-1.13-5.32-2.41-1.03,.42-2.15,.64-3.28,.64-.52,0-1.05-.05-1.57-.14-3.28-.56-6.22-2.74-8.06-5.94-.05,0-.1,0-.14,0-.45,0-.92-.03-1.43-.1-.2,0-.39,.01-.58,.01-2.53,0-4.75-.78-6.59-2.31l-.15-.12-2.6-3.34c-.29-.39-.54-.77-.77-1.16-3.97-.47-8.71-3.22-11.03-12.73-5.64-3.21-8.6-8.48-8.62-15.33h-4.93c-4.07,0-7.55-2.92-8.4-6.78-5.87-.64-12.02-1.27-18.75-1.93l-3.7-.36v-36.22h22.25v-.51c0-4.74,3.86-8.6,8.6-8.6h5.62c2.15,0,4.15,.79,5.69,2.14,1.09-5.28,3.16-10.95,9.54-12.42,1.51-4.35,5.62-7.75,11.53-9.52,.21-1.12,.5-2.24,.87-3.36,2.19-6.73,6.94-13.1,13.39-17.94,3.18-2.39,6.24-4.17,9.35-5.43,5.1-9.63,15.3-15.81,26.19-15.81,16.34,0,29.64,13.3,29.64,29.64,0,8.77-4.01,17.24-10.78,22.84v18.98h19.43v-.51c0-4.74,3.86-8.6,8.6-8.6h5.62c4.74,0,8.6,3.86,8.6,8.6v.51h6.64v-.51c0-4.74,3.86-8.6,8.6-8.6h5.62c4.74,0,8.6,3.86,8.6,8.6v.51h22.04v36.33l-3.82,.26c-6.42,.42-12.57,.88-18.32,1.37-.62,4.14-4.2,7.33-8.51,7.33h-5.62c-3.46,0-6.5-2.03-7.86-5.09-2.53,.31-5,.63-7.38,.97-.01,4.73-3.87,8.57-8.6,8.57h-5.62c-3.22,0-6.15-1.83-7.61-4.61-7.58,1.77-14.13,3.81-20.42,6.36v20.12h1.4l.62,.24c.65,.25,1.31,.56,1.98,.92,1.08-.36,2.18-.55,3.28-.55,3.74,0,6.75,2.06,9.29,4.17,.75-.13,1.48-.2,2.18-.2,1.84,0,3.57,.44,5.12,1.31,2.07,1.16,3.74,3.06,4.89,5.53,.17,0,.34-.01,.51-.01,2.22,0,4.33,.78,6.09,2.26,2.33,1.95,3.83,4.99,4.06,8.15,1.18,.62,2.16,1.47,2.91,2.53,1.54,2.16,2.09,5.04,1.68,8.77,2.86,1.66,3.9,4.03,4.27,5.39,.83,3.01,.1,6.6-1.96,9.78,.7,1.58,.92,3.36,.66,5.2-.56,3.92-3.14,7.4-5.49,9.48,.34,2.92-.15,5.48-1.48,7.63-1.43,2.3-3.75,4-6.9,5.07-.56,1.96-1.7,3.78-3.3,5.22-2.71,2.45-6.47,3.74-10.86,3.74-.21,0-.42,0-.63-.01-.32,.61-.72,1.17-1.21,1.69-3.02,3.2-8.2,3.64-13.34,3.64-.53,0-1.07,0-1.61-.02-.38,.79-.93,1.53-1.61,2.18-.18,.17-.37,.33-.57,.49v22.2c2.5,12.74,11.88,20.62,25.75,21.64,1.02,.08,2.07,.11,3.12,.11,13.29,0,28.07-5.72,40.07-15.42-1.15-.44-2.27-.86-3.37-1.26-1.61-.58-2.69-2.13-2.69-3.85v-5.71l.15-.42c.03-.12,.07-.25,.12-.37,.1-.25,.19-.43,.27-.58l.18-.39,.46-.49c12.18-12.25,21.04-26.75,26.37-43.1l.09-.26,.3-.61,.08-.1c.15-.24,.33-.46,.53-.66l.23-.25,3.56-2.4c.68-.46,1.47-.7,2.29-.7,.3,0,.59,.03,.88,.1,1.14,.27,2.1,.98,2.66,1.95,14.54,25.08,19.24,51.33,13.25,73.95v1l-.72,.73c-.15,.22-.33,.43-.52,.62l-.41,.42-.46,.21c-.15,.08-.3,.15-.46,.21l-.48,.29h-1.01c-.67,.01-1.32-.15-1.9-.44-4.22-2.21-8.49-4.34-12.7-6.37-1.97,4.39-4.52,8.5-7.59,12.26-4.67,5.71-10.79,10.92-18.2,15.5-11.69,7.43-26.82,13.22-44.94,17.2l-.05,.02-.21,.04-.12,.02c-8.39,1.52-15.95,4.06-22.45,7.56-6.6,3.77-12.64,8.95-17.92,15.37l-3.1,4.23-2.24-2.92Zm-42.27-68.82c-.26,1.01-.65,2.03-1.07,2.98,.45-.03,.89-.06,1.32-.1,13.55-1.28,22.71-9.02,25.16-21.25v-9.3c-.41,.02-.82,.03-1.23,.03-.12,0-.24,0-.36,0-.25,1.06-.69,2.06-1.3,2.97-1.55,2.31-4.19,3.96-7.85,4.89-1,3.53-3.58,6.5-7.69,8.84-.35,5.01-2.74,8.76-6.98,10.94Zm63.49-64.43c.61,.03,1.21,.07,1.81,.11,2.74-3.27,7.69-3.99,11.42-4.38,1.58-2.65,3.83-4.95,6.74-6.86,.49-2.72,1.65-5.14,3.51-7.36-.27-2.02,.08-4.49,1.06-7.36-.74-1.5-1.11-3.4-1.11-5.74-2.2-.98-3.88-2.62-4.92-4.83-1.35-.3-2.94-1.03-4.41-2.65-3.31-.07-6.1-1.11-8.3-3.09-.73,.13-1.49,.19-2.26,.19-1.12,0-2.28-.12-3.52-.37v42.35Zm-51.54-78.99c3.25,.1,6.9,.67,9.35,3.06,1.1-.25,2.21-.38,3.37-.38,.24,0,.49,0,.73,.02v-12.66c-5.78-2.06-12.55-3.88-20.6-5.55-1.56,2.43-4.25,3.93-7.21,3.93h-2.23c2.73,1.3,4.99,3.24,6.73,5.78,4.29,.1,7.74,2.14,9.85,5.79Zm13.45-61.31v-7.29c-3.54,1.2-7.13,1.83-10.51,1.83-4.84,0-9.12-1.22-12.57-3.56-.17,.33-.36,.66-.57,.98,2.68,1.47,4.44,4.31,4.44,7.54v.51h19.2Zm21.59-51.56c.3,.34,.58,.69,.86,1.05,3.34,4.45,4.4,10.28,3.08,16.45,2.3-1.87,3.73-4.71,3.73-7.76,0-4.71-3.27-8.67-7.66-9.74Z" fill="#333"/><path d="M253.38,425.37h-.91v-1.16c-5.71-6.93-12.45-12.44-20.04-16.38-6.11-3.06-13.18-5.31-20.99-6.69-9.97-2.16-19.02-4.82-26.98-7.95-.15,.41-.34,.79-.56,1.17-.17,3.27-.95,6.03-2.45,8.63-1.93,3.38-4.85,5.28-8.22,5.36h-.22c-3.19,0-6.2-1.73-8.05-4.63-1.84-3.12-.98-6.79-.13-9.86-1.44-3.47-1.27-6.43,.63-10.26-3.83-2.49-7.29-5.18-10.33-8.03-.34-.32-.68-.65-1.02-.98l-.53-.53c-.21-.21-.42-.41-.62-.62-1.22-1.24-2.25-2.36-3.14-3.42-3.33-3.96-6.07-8.32-8.15-12.98-4.79,2.27-9.68,4.71-14.55,7.25-.34,.17-.7,.26-1.07,.26h-.51l-.21-.12c-.16-.05-.31-.12-.45-.21l-.11-.05h-.57l-.31-1.16-.1-.21v-.18c-5.96-22.21-1.34-48.06,13.01-72.82,.31-.55,.86-.95,1.49-1.09,.14-.03,.32-.06,.5-.06,.45,0,.9,.13,1.28,.39l3.4,2.28,.13,.15h0c.14,.14,.26,.29,.35,.44l.1,.12,.11,.32c5.42,16.65,14.43,31.38,26.79,43.8l.22,.22,.1,.2c.06,.09,.12,.21,.18,.35,.05,.1,.08,.22,.1,.33l.06,.17v5.44c0,.96-.6,1.83-1.5,2.16-1.59,.58-3.29,1.22-5.14,1.95,5.42,4.46,11.48,8.19,17.74,10.91,.62-.91,1.45-1.66,2.11-2.17-.11-3.49,1.41-7.88,8.12-11.18,.36-4,2.48-8.86,9.8-11.69,2.53-6.12,6.86-9.7,12.61-10.46,.36-2.29,1.31-4.21,2.84-5.73,2.49-2.47,6.42-3.78,11.96-3.99,1-3.07,3.45-5.2,7.3-6.34v-66.03c-1.18-.15-2.31-.62-3.38-1.4-1.36,.79-2.97,1.22-4.62,1.22-.47,0-.93-.03-1.38-.1-2.04-.31-3.86-1.29-5.27-2.81-1.07,.67-2.3,1.02-3.6,1.02-.42,0-.84-.04-1.27-.11-3.09-.52-5.83-2.83-7.32-6.04-.39,.05-.79,.08-1.2,.08s-.85-.03-1.35-.1c-.22,.01-.44,.02-.66,.02-2.1,0-3.93-.64-5.44-1.89l-2.48-3.18c-.43-.58-.78-1.17-1.06-1.78-5.27-.11-8.82-4.22-10.59-12.2-5.88-3.04-8.76-8.39-8.36-15.55-.1-.15-.19-.29-.28-.45-.29,.04-.58,.06-.86,.06h-5.62c-3.69,0-6.7-2.95-6.8-6.61-6.19-.68-12.81-1.37-20.18-2.09l-2.08-.2v-32.79h22.25v-2.31c0-3.75,3.05-6.8,6.8-6.8h5.62c3.02,0,5.58,1.97,6.47,4.7,.1-.09,.21-.17,.31-.26l.06-.36c1.02-6.07,2.27-13.53,9.8-14.59,1.22-5.22,6.5-8.33,11.7-9.66,.2-1.4,.53-2.82,.99-4.23,2.08-6.38,6.61-12.44,12.76-17.06,3.26-2.45,6.39-4.24,9.56-5.44,4.7-9.4,14.39-15.44,24.9-15.44,15.35,0,27.84,12.49,27.84,27.84,0,8.57-4.01,16.71-10.78,21.98v21.64h23.03v-2.31c0-3.75,3.05-6.8,6.8-6.8h5.62c3.75,0,6.8,3.05,6.8,6.8v2.31h10.24v-2.31c0-3.75,3.05-6.8,6.8-6.8h5.62c3.75,0,6.8,3.05,6.8,6.8v2.31h22.04v32.85l-2.14,.15c-7.06,.47-13.74,.97-19.9,1.51v.39c0,3.75-3.05,6.8-6.8,6.8h-5.62c-3.22,0-5.92-2.25-6.62-5.26-3.63,.43-7.12,.89-10.41,1.37v1.54c0,3.75-3.05,6.8-6.8,6.8h-5.62c-3.09,0-5.71-2.07-6.53-4.9-8.74,1.96-16.21,4.29-23.3,7.25v23.12h2.87l.31,.12c.8,.31,1.61,.71,2.46,1.23,1.14-.49,2.29-.73,3.44-.73,3.47,0,6.3,2.18,8.8,4.31,.92-.23,1.82-.34,2.67-.34,1.53,0,2.96,.36,4.24,1.08,2.06,1.16,3.64,3.19,4.64,5.91,.55-.11,1.1-.17,1.64-.17,1.79,0,3.5,.64,4.94,1.84,2.25,1.88,3.54,4.97,3.44,7.95,1.36,.5,2.44,1.3,3.22,2.4,1.42,1.99,1.82,4.87,1.18,8.76,3.08,1.32,4.14,3.53,4.5,4.83,.87,3.15-.44,6.65-2.33,9.17,.91,1.48,1.24,3.21,.98,5.08-.54,3.78-3.32,7.21-5.63,9,.53,2.91,.17,5.4-1.08,7.41-1.34,2.16-3.65,3.7-6.89,4.6-.33,1.97-1.37,3.85-2.98,5.3-2.38,2.14-5.72,3.28-9.65,3.28-.57,0-1.17-.03-1.8-.09-.27,.88-.72,1.66-1.35,2.33-2.55,2.7-7.29,3.08-12.03,3.08-.93,0-1.9-.02-2.86-.05-.22,.98-.76,1.91-1.6,2.7-.33,.31-.7,.6-1.13,.88v23.3c2.61,13.7,12.6,22.18,27.42,23.26,1.06,.08,2.15,.12,3.25,.12,14.54,0,30.98-6.77,43.55-17.8-2.19-.86-4.25-1.64-6.23-2.37-.9-.33-1.51-1.2-1.51-2.16v-5.4l.07-.21c.02-.09,.05-.18,.08-.27,.06-.15,.12-.27,.18-.37l.08-.18,.25-.27c12.35-12.42,21.37-27.16,26.78-43.79l.04-.13,.15-.31,.02-.03c.1-.17,.23-.33,.38-.47l.11-.13,3.38-2.27c.38-.26,.83-.39,1.28-.39,.17,0,.34,.02,.5,.05,.64,.15,1.17,.54,1.49,1.09,14.35,24.76,18.97,50.61,13.01,72.82v.5l-.34,.34c-.08,.14-.2,.3-.36,.46l-.22,.22-.22,.1c-.13,.08-.27,.14-.42,.19l-.2,.12h-.53c-.36,0-.73-.08-1.05-.25-4.8-2.51-9.65-4.92-14.44-7.2-1.99,4.88-4.7,9.43-8.07,13.55-4.54,5.55-10.52,10.64-17.76,15.11-11.54,7.33-26.51,13.06-44.47,16.99l-.06,.02-.12,.02c-8.61,1.56-16.36,4.17-23.03,7.75-6.81,3.89-13.03,9.22-18.46,15.81l-1.75,2.37-1.32-1.72Zm-46.81-62.16c1.39,0,2.75-.06,4.06-.18,14.48-1.36,24.23-9.69,26.79-22.86v-11.42c-1,.12-2.01,.17-3.03,.17-.64,0-1.28-.02-1.91-.07-.08,1.42-.49,2.71-1.25,3.84-1.43,2.14-4.07,3.62-7.85,4.39-.67,3.75-3.33,6.85-7.95,9.25-.06,5.14-2.39,8.84-6.79,10.79-.34,1.94-1.41,4.24-2.49,6.1,.14,0,.28,0,.42,0Zm65.56-67.53c1.43,0,2.89,.11,4.24,.22,2.14-3.44,7.07-4.1,11.67-4.56,1.55-2.95,3.99-5.46,7.28-7.48,.38-2.97,1.63-5.57,3.79-7.92-.62-2.38,.14-5.47,1.1-8.05-1-1.54-1.41-3.76-1.25-6.81-2.67-.8-4.53-2.57-5.49-5.21-1.44-.11-3.26-.75-4.85-2.83-.16,0-.31,.01-.47,.01-3.35,0-6.07-1.1-8.1-3.26-.89,.24-1.84,.36-2.83,.36-1.61,0-3.36-.29-5.32-.89v46.44c.07,0,.15,0,.23,0Zm-51.06-78.97c3.61,.02,7.74,.49,9.84,3.32,1.29-.41,2.6-.61,3.98-.61,.83,0,1.67,.07,2.53,.22v-15.92c-6.42-2.38-14.09-4.46-23.35-6.32-1.03,2.47-3.46,4.16-6.25,4.16h-4.98c.07,.82,.13,1.71,.18,2.7,3.6,1.22,6.35,3.43,8.33,6.69,.22-.01,.44-.02,.65-.02,4.16,0,7.28,1.99,9.07,5.78Zm16.35-61.29v-11.7c-4.12,1.73-8.33,2.63-12.31,2.63-5.39,0-10.09-1.67-13.44-4.74-.29,1.6-1.09,3.27-2.77,4.78,3.24,.52,5.72,3.33,5.72,6.71v2.31h22.8Zm14.9-55.16c1.69,1.06,3.15,2.39,4.31,3.94,3.75,4.99,4.28,11.89,1.58,18.93,4.88-1.47,8.47-6.03,8.47-11.33,0-6.52-5.31-11.82-11.84-11.82-.85,0-1.7,.09-2.52,.28Zm-24.74,17.07c-.01-.06-.02-.11-.03-.17-.05,.05-.11,.09-.16,.14,.06,0,.13,.02,.19,.03Zm15.52-4.2c.15,1.35,.54,2.65,1.14,3.86,.19-1.35-.03-2.49-.66-3.32-.15-.2-.31-.38-.48-.54Z" fill="#333"/><g filter="#h"><g><g><path d="M340.68,336.16c16.33,6.35,30.03,12.8,41.33,19.34,1.44-19.02-2.48-40.08-13.99-64.04-5.37,16.49-14.21,31.5-27.34,44.7Z" fill="#f9d46b"/><path d="M382.01,356c-.09,0-.17-.02-.25-.07-11.39-6.59-25.27-13.08-41.26-19.3-.16-.06-.27-.2-.31-.36s.02-.34,.13-.46c12.56-12.63,21.71-27.6,27.22-44.5,.06-.19,.24-.33,.44-.34,.2,0,.4,.1,.48,.28,10.98,22.86,15.58,43.9,14.04,64.29-.01,.17-.11,.32-.27,.4-.07,.04-.15,.06-.23,.06Zm-40.44-20.03c15.42,6.03,28.87,12.31,39.99,18.7,1.33-19.64-3.08-39.9-13.46-61.87-5.51,16.33-14.43,30.85-26.53,43.17Z" fill="#a3710c"/></g><g><path d="M383.91,360.62c5.98-21.99,1.33-47.05-12.72-71.29l-3.18,2.14c10.58,21.61,16.32,47.67,13.99,64.04l1.91,5.11Z" fill="#b8830f"/><path d="M383.91,361.12c-.21,0-.4-.13-.47-.33l-1.91-5.12c-.03-.08-.04-.16-.03-.25,2.29-16.09-3.44-42.3-13.94-63.75-.11-.22-.04-.5,.17-.63l3.18-2.14c.11-.08,.25-.1,.39-.07,.13,.03,.25,.12,.32,.24,14.16,24.43,18.69,49.88,12.77,71.67-.06,.21-.24,.36-.46,.37h-.02Zm-1.39-5.67l1.31,3.51c5.21-21.05,.69-45.43-12.8-68.92l-2.37,1.59c10.6,21.81,16.15,47.38,13.86,63.81Z" fill="#a3710c"/></g><path d="M347.21,338.75c9.64,3.75,22.83,9.66,29.5,13.52,.85-11.22,1.06-31.58-8.44-46.73-3.17,9.73-10.21,26.05-21.06,33.21Z" fill="#ffb411"/><g><path d="M340.68,341.25c14.04,5.14,28.47,11.66,43.23,19.37l-1.91-5.11c-12.47-7.14-26.32-13.55-41.33-19.34v5.09Z" fill="#ffb411"/><path d="M383.91,361.12c-.08,0-.16-.02-.23-.06-15.04-7.86-29.57-14.36-43.17-19.34-.2-.07-.33-.26-.33-.47v-5.09c0-.17,.08-.32,.22-.41,.14-.09,.31-.11,.46-.05,15.42,5.95,29.35,12.47,41.4,19.37,.1,.06,.18,.15,.22,.26l1.91,5.12c.07,.19,.02,.41-.14,.55-.09,.08-.21,.12-.33,.12Zm-42.73-20.22c13.2,4.85,27.26,11.13,41.81,18.67l-1.39-3.73c-11.79-6.74-25.39-13.12-40.42-18.95v4.01Z" fill="#a3710c"/></g><rect x="368.08" y="349.61" width="5.4" height="4.19" transform="translate(179.66 -122.27) rotate(24.55)" fill="#b8830f"/><path d="M355.44,340.3c9.42,3.65,9.8,5.86,16.93,9.22,1.75-10.57,2.77-22.08-3.86-35.84-3.1,9.47-5.49,19.04-13.06,26.62Z" fill="#cd9615"/><path d="M382.01,356c-.09,0-.17-.02-.25-.07-11.39-6.59-25.27-13.08-41.26-19.3-.16-.06-.27-.2-.31-.36s.02-.34,.13-.46c12.56-12.63,21.71-27.6,27.22-44.5,.06-.19,.24-.33,.44-.34,.2,0,.4,.1,.48,.28,10.98,22.86,15.58,43.9,14.04,64.29-.01,.17-.11,.32-.27,.4-.07,.04-.15,.06-.23,.06Zm-40.44-20.03c15.42,6.03,28.87,12.31,39.99,18.7,1.33-19.64-3.08-39.9-13.46-61.87-5.51,16.33-14.43,30.85-26.53,43.17Z" fill="#a3710c"/><path d="M383.91,361.12c-.08,0-.16-.02-.23-.06-15.04-7.86-29.57-14.36-43.17-19.34-.2-.07-.33-.26-.33-.47v-5.09c0-.17,.08-.32,.22-.41,.14-.09,.31-.11,.46-.05,15.42,5.95,29.35,12.47,41.4,19.37,.1,.06,.18,.15,.22,.26l1.91,5.12c.07,.19,.02,.41-.14,.55-.09,.08-.21,.12-.33,.12Zm-42.73-20.22c13.2,4.85,27.26,11.13,41.81,18.67l-1.39-3.73c-11.79-6.74-25.39-13.12-40.42-18.95v4.01Z" fill="#a3710c"/></g><g><g><g><path d="M128.4,356.32c-1.33-19.64,3.08-39.9,13.46-61.87,5.51,16.33,14.43,30.84,26.53,43.17-15.43,6.03-28.87,12.32-39.99,18.7Z" fill="#cd9615"/><path d="M141.79,295.78c5.48,15.69,14.12,29.68,25.72,41.65-14.83,5.83-27.82,11.9-38.66,18.06-1.13-18.97,3.11-38.54,12.94-59.71m.15-2.67c-11.51,23.96-15.42,45.02-13.99,64.04,11.29-6.54,25-12.99,41.33-19.34-13.13-13.2-21.97-28.21-27.34-44.7h0Z" fill="#cd9615"/></g><path d="M141.95,292.98l-.48,.28c-10.98,22.86-15.55,43.52-14.01,63.92l.06,.79,.69-.4c11.38-6.59,24.9-12.73,40.9-18.95l.31-.36-.13-.46c-12.56-12.63-21.39-27.58-26.89-44.48l-.44-.34h0Zm-13.55,63.33c-1.33-19.64,3.08-39.9,13.46-61.87,5.51,16.33,14.07,31.2,26.18,43.53-15.43,6.03-28.52,11.97-39.64,18.34h0Z" fill="#cd9615"/></g><g><path d="M126.05,362.26c-5.98-21.99-1.33-47.05,12.72-71.29l3.18,2.14c-10.58,21.61-16.32,47.67-13.99,64.04l-1.91,5.11Z" fill="#f9d46b"/><path d="M126.05,362.76h-.02c-.22-.01-.4-.16-.46-.37-5.93-21.79-1.39-47.24,12.77-71.67,.07-.12,.19-.21,.32-.24,.13-.03,.28,0,.39,.07l3.18,2.14c.21,.14,.28,.41,.17,.63-10.5,21.44-16.23,47.66-13.94,63.75,.01,.08,0,.17-.03,.25l-1.91,5.12c-.07,.2-.26,.33-.47,.33Zm12.88-71.08c-13.49,23.48-18,47.87-12.8,68.92l1.31-3.51c-2.29-16.44,3.26-42,13.86-63.81l-2.37-1.59Z" fill="#a3710c"/></g><g><path d="M169.28,342.9c-14.04,5.14-28.47,11.66-43.23,19.37l1.91-5.11c12.47-7.14,26.32-13.55,41.33-19.34v5.09Z" fill="#c59221"/><path d="M126.05,362.76c-.12,0-.24-.04-.33-.12-.16-.14-.21-.36-.14-.55l1.91-5.12c.04-.11,.12-.2,.22-.26,12.05-6.9,25.97-13.42,41.39-19.37,.15-.06,.33-.04,.46,.05,.14,.09,.22,.25,.22,.41v5.09c0,.21-.13,.4-.33,.47-13.61,4.98-28.14,11.49-43.17,19.34-.07,.04-.15,.06-.23,.06Zm2.31-5.27l-1.39,3.73c14.54-7.54,28.6-13.82,41.81-18.67v-4.01c-15.04,5.83-28.63,12.21-40.42,18.95Z" fill="#a3710c"/></g><path d="M160.72,341.23c-8.96,3.49-11.3,4.17-17.5,7.76-.79-10.44-4.31-19.19-2.86-34.55,4.5,9.96,13.38,20.15,20.36,26.79Z" fill="#c59221"/><path d="M127.95,357.65c-.08,0-.16-.02-.23-.06-.15-.08-.25-.23-.27-.4-1.54-20.4,3.05-41.43,14.04-64.29,.09-.18,.27-.3,.48-.28,.2,.01,.38,.15,.44,.34,5.5,16.9,14.66,31.88,27.22,44.5,.12,.12,.17,.29,.13,.46-.04,.17-.15,.3-.31,.36-16,6.22-29.88,12.72-41.26,19.31-.08,.04-.16,.07-.25,.07Zm13.9-63.2c-10.38,21.97-14.79,42.23-13.46,61.87,11.12-6.38,24.57-12.66,39.99-18.7-12.1-12.33-21.02-26.84-26.53-43.17Z" fill="#a3710c"/></g><g><path d="M239.72,340.38c-7.83,41.78-78.55,29.79-99.31-23.29-8.07,47.13,21.28,70.94,71.43,81.79,20.56,3.62,33.74,12.53,42.83,24.38,9.49-12.82,23.79-20.93,42.84-24.37,59.78-13.8,79.49-42.51,70.73-81.8-17.38,50.86-90.44,67.39-98.63,23.29V128.03h-29.88v212.35Z" fill="#ffb411"/><path d="M254.67,424.1l-.4-.53c-9.96-12.99-23.87-20.91-42.52-24.19-55.77-12.07-79.26-39.02-71.83-82.37l.3-1.77,.66,1.67c12.87,32.9,45.67,50.19,69.93,47.91,15.4-1.45,25.76-10.38,28.42-24.49V127.53h30.88v212.85c2.72,14.63,13.33,23.73,29.09,24.88,24.44,1.78,57.58-16.19,68.56-48.33l.57-1.68,.39,1.73c4.53,20.32,1.25,37.44-9.76,50.89-11.62,14.19-32.26,24.8-61.34,31.51-18.89,3.41-33.19,11.55-42.55,24.18l-.4,.53Zm-114.06-105.16c-6.38,41.69,16.97,67.69,71.33,79.46,18.64,3.28,32.62,11.15,42.71,24.04,9.52-12.54,23.9-20.63,42.75-24.04,28.84-6.66,49.3-17.15,60.77-31.17,10.49-12.82,13.83-29.07,9.93-48.32-11.7,31.54-44.64,49.11-68.99,47.34-16.25-1.19-27.19-10.59-30.01-25.79V128.53h-28.89v211.94c-2.75,14.61-13.43,23.85-29.33,25.35-24.21,2.29-56.79-14.62-70.28-46.88Z" fill="#a3710c"/></g><path d="M254.85,407.16c11.5-9.44,19.92-12.82,42.65-18.16,58.04-16.85,71.63-34.71,70.73-71.91-17.64,50.7-89.49,67.87-98.63,23.29V128.03h-14.94l.19,279.13Z" fill="#cd9615"/><g><path d="M255.33,406.52l-.97-1.75c14.85-8.24,29.78-14.17,40.98-16.29l.37,1.96c-11,2.08-25.72,7.94-40.38,16.08Z" fill="#ffb411"/><path d="M331.09,374.99c-.34,0-.68-.18-.86-.49-.28-.48-.12-1.09,.36-1.37,17.38-10.19,26.91-20.28,30.86-32.97-9.94,13.22-25.75,23.72-43.33,28.59-.53,.15-1.08-.16-1.23-.7-.15-.53,.17-1.08,.7-1.23,19.08-5.29,36.01-17.36,45.29-32.29l2.8-4.5-.96,5.21c-2.94,15.87-12.84,27.71-33.11,39.6-.16,.09-.33,.14-.5,.14Z" fill="#ffb411"/><path d="M295.53,390.96c-.62,0-1.2-.39-1.42-1-.27-.78,.14-1.64,.92-1.91,55.53-19.53,67.13-33.62,69.57-55.59-10.09,18.12-30.33,29.71-47.29,34.76-.79,.24-1.63-.22-1.87-1.01s.22-1.63,1.01-1.87c18.5-5.51,41.03-19.03,48.77-40.45,.25-.69,.97-1.1,1.69-.96,.72,.14,1.24,.78,1.22,1.52-.9,28.23-8.31,43.98-72.11,66.43-.17,.06-.33,.08-.5,.08Z" fill="#f9d46b"/><g><polygon points="368.5 323.96 366.17 323.27 367.79 319.51 368.5 323.96" fill="#f9d46b"/><path d="M369.12,324.67l-3.63-1.08,2.53-5.85,1.1,6.93Zm-2.27-1.72l1.03,.31-.31-1.97-.72,1.66Z" fill="#f9d46b"/></g></g><g><rect x="254.16" y="128.03" width="1" height="279.13" fill="#a3710c"/><g><rect x="255.2" y="128.03" width="1" height="279.13" fill="#b8830f"/><g><path d="M255.7,374.63c4.34,11.92,10.21,22.32,15.23,20.28-5.95,2.91-11.39,5.9-15.23,9.13v-29.41Z" fill="#b8830f"/><path d="M255.2,405.11v-33.31l.97,2.66c4.02,11.03,8.39,18.28,12,19.87,.92,.41,1.76,.44,2.57,.11l.41,.91c-4.85,2.38-10.95,5.55-15.13,9.06l-.82,.69Zm1-27.74v25.62c3.57-2.81,8.22-5.37,12.36-7.46-.26-.07-.53-.16-.79-.28-4.64-2.05-8.95-11.19-11.56-17.88Z" fill="#b8830f"/></g><g><path d="M255.7,221.17c.14-10.76,12-14.35,13.67-7.71v-14.2l-13.67,4.26v17.65Z" fill="#b8830f"/><path d="M256.2,221.17h-1v-18.02l14.67-4.57v18.92l-.98-3.92c-.53-2.11-2.26-3.2-4.61-2.93-3.85,.45-7.99,4.29-8.07,10.52Zm0-17.29v12.27c1.6-3.83,4.86-6.13,7.96-6.49,2-.23,3.67,.38,4.71,1.66v-11.39l-12.67,3.95Z" fill="#b8830f"/></g><path d="M255.7,404.53c-.15,0-.3-.07-.4-.2-.17-.22-.13-.53,.09-.7,11.36-8.72,20.92-12.23,42.14-17.73,28.11-7.35,49.29-21.01,58.83-37.78-18.07,18.74-42.48,26.98-63.1,21.05-14.19-4.08-23.6-14.17-25.82-27.68v-69.22c0-.28,.22-.5,.49-.5s.5,.22,.5,.5v69.14c2.15,13.03,11.31,22.83,25.11,26.8,21.22,6.11,46.58-3.11,64.6-23.48l2.3-2.6-1.47,3.14c-8.67,18.54-30.97,33.7-61.18,41.6-21.08,5.47-30.56,8.94-41.78,17.56-.09,.07-.2,.1-.3,.1Z" fill="#b8830f"/><path d="M258.59,139.66c-1.2,0-2.35-.16-3.36-.49l.63-1.9c4.21,1.4,10.77-.92,11.91-4.21l1.89,.65c-1.27,3.68-6.55,5.95-11.08,5.95Z" fill="#b8830f"/><rect x="255.38" y="139.49" width="3.56" height="17.85" fill="#b8830f"/></g></g><g><rect x="254.04" y="128.03" width="1" height="279.13" fill="#a3710c"/><g><g><path d="M253.51,220.63c-.14-10.76-11.4-14.35-13.07-7.71v-14.2l13.07,4.26v17.65Z" fill="#cd9615"/><path d="M253.01,220.64c-.08-6.03-3.98-10.09-7.7-10.52-2.22-.27-3.85,.84-4.38,2.93l-.98,3.92v-18.93l14.07,4.59v18.01h-1Zm-8.33-11.55c.24,0,.49,.01,.75,.04,2.94,.34,6.04,2.6,7.59,6.38v-12.16l-12.07-3.93v11.35c.88-1.09,2.18-1.69,3.73-1.69Z" fill="#cd9615"/></g><path d="M253.51,407.66c-.28,0-.5-.22-.5-.5V128.03c0-.28,.22-.5,.5-.5s.5,.22,.5,.5V407.16c0,.28-.22,.5-.5,.5Z" fill="#f9d46b"/><g><path d="M253.51,374.63c-4.34,11.92-10.21,22.32-15.23,20.28,5.95,2.91,11.39,5.9,15.23,9.13v-29.41Z" fill="#f9d46b"/><path d="M254.01,405.11l-.82-.69c-4.18-3.51-10.28-6.69-15.13-9.06l.41-.91c.81,.33,1.65,.29,2.57-.11,3.6-1.6,7.98-8.84,12-19.87l.97-2.66v33.31Zm-13.36-9.58c4.14,2.09,8.79,4.65,12.36,7.46v-25.62c-2.61,6.68-6.92,15.82-11.56,17.88-.27,.12-.53,.21-.79,.28Z" fill="#f9d46b"/></g><path d="M207.61,367.61c-3.29,0-6.75-.32-10.38-.97-.27-.05-.45-.31-.4-.58,.05-.27,.31-.45,.58-.4,22.65,4.04,38.86-5.04,43.37-24.31v-69.08c0-.28,.22-.5,.5-.5s.5,.22,.5,.5v69.25c-3.91,16.78-16.38,26.09-34.16,26.09Z" fill="#f9d46b"/><path d="M253.5,404.53c-.11,0-.21-.03-.3-.1-11.23-8.61-20.71-12.09-41.78-17.56-1.43-.38-2.86-.74-4.27-1.1-7.97-2.04-15.5-3.96-22.03-7.2-.25-.12-.35-.42-.23-.67s.42-.35,.67-.23c6.43,3.2,13.92,5.11,21.83,7.13,1.42,.36,2.84,.73,4.27,1.1,21.22,5.5,30.78,9.01,42.14,17.73,.22,.17,.26,.48,.09,.7-.1,.13-.25,.2-.4,.2Z" fill="#f9d46b"/><path d="M250.68,139.15c-4.33,0-9.48-2.16-10.67-5.6-.09-.26,.05-.55,.31-.64,.26-.09,.55,.05,.64,.31,1.21,3.5,8.12,5.99,12.54,4.52,.26-.08,.54,.05,.63,.32,.09,.26-.05,.54-.32,.63-.93,.31-2.01,.46-3.13,.46Z" fill="#f9d46b"/><path d="M254.32,157.85h-4.56v-18.85h4.56v18.85Zm-3.56-1h2.56v-16.85h-2.56v16.85Z" fill="#f9d46b"/></g></g><g><path d="M254.85,407.16c13.28-10.5,20.36-12.9,42.65-18.16,63.6-17.48,72.1-43.9,70.73-71.91,7.84,33.8-6.75,67.82-70.73,81.8-17.36,2.44-31.57,10.68-42.84,24.37-10.6-13.1-24.57-21.65-42.83-24.38-57.84-12.61-79.05-41-71.43-81.79-1.21,33.17,18.04,58.83,72.74,71.48,14.56,2.51,28.32,9.51,41.7,18.59Z" fill="#b8830f"/><path d="M254.66,424.06l-.39-.48c-10.9-13.47-25.2-21.61-42.51-24.2-28.39-6.19-48.76-16.45-60.57-30.5-11.38-13.54-15.18-30.99-11.27-51.88l.99,.11c-1.32,36.19,22.34,59.41,72.35,70.97,13.04,2.25,26.27,8.12,41.57,18.46,13.04-10.27,20.24-12.76,42.56-18.03,29.21-8.03,48.67-18.45,59.45-31.83,10.71-13.3,11.45-28.13,10.89-39.56l.99-.14c4,17.25,1.88,32.56-6.3,45.51-11.07,17.5-32.87,29.92-64.81,36.9-17,2.39-31.31,10.53-42.56,24.2l-.39,.47Zm-114.72-100.52c-2.02,17.78,2.01,32.79,12.02,44.7,11.67,13.88,31.85,24.03,59.99,30.16,17.33,2.59,31.71,10.7,42.72,24.08,11.35-13.59,25.74-21.69,42.76-24.08,31.63-6.92,53.22-19.18,64.14-36.45,7.12-11.26,9.56-24.36,7.29-39.01-.22,25.15-11.18,50.04-71.22,66.54-22.32,5.27-29.41,7.74-42.47,18.07l-.29,.23-.3-.21c-15.31-10.39-28.5-16.27-41.51-18.51-47.55-11-71.53-32.46-73.12-65.52Z" fill="#a3710c"/></g><path d="M253.2,211.56c-3.23-2.52-8.74-6.11-13.65-7.91l.34-.94c5.02,1.84,10.63,5.49,13.92,8.06l-.62,.79Z" fill="#f9d46b"/><path d="M254,216.65l-1-.04c.13-3.5-1-6.01-3.45-7.67l.56-.83c2.72,1.84,4.03,4.71,3.89,8.54Z" fill="#f9d46b"/><g><path d="M185.97,376.11c-24.41-8.4-40.24-26.72-45.62-55.74,10.54,25.75,29.48,41.96,56,47.36-8.79-2.27-15.05,5.72-10.38,8.37Z" fill="#cd9615"/><path d="M185.97,376.61c-.05,0-.11,0-.16-.03-25.2-8.67-40.65-27.55-45.95-56.12-.05-.25,.1-.5,.35-.57,.25-.07,.51,.05,.6,.29,10.43,25.48,28.76,41.23,54.48,46.82,.39,.06,.78,.15,1.18,.25,.26,.07,.42,.33,.36,.6s-.33,.43-.59,.38c-.38-.08-.76-.16-1.14-.24-5.03-.81-8.97,1.88-9.97,4.35-.33,.83-.64,2.36,1.07,3.34,.22,.13,.31,.41,.21,.64-.08,.18-.26,.29-.46,.29Zm-44.13-51.6c5.83,24.83,20.05,41.61,42.34,49.93-.4-.86-.4-1.89,.04-2.97,.94-2.31,3.55-4.32,6.92-4.93-22.51-5.98-39.06-20.08-49.3-42.02Z" fill="#cd9615"/></g><path d="M181.21,373.81c-.44,0-.84-.29-.97-.74-.92-3.43,.75-7.11,3.65-8.04,.53-.17,1.09,.12,1.26,.65,.17,.53-.12,1.09-.65,1.26-1.88,.6-2.97,3.22-2.33,5.61,.14,.53-.17,1.08-.71,1.23-.09,.02-.17,.03-.26,.03Z" fill="#ffb411"/><rect x="180.11" y="371.5" width="1" height="5.01" transform="translate(-234.3 392.64) rotate(-66.8)" fill="#cd9615"/><rect x="184.13" y="362.3" width="1" height="4.29" transform="translate(-220.73 415.39) rotate(-70.3)" fill="#cd9615"/><path d="M229.57,393.3l.27,7.95c-5.79-1.77-11.55-2.63-17.7-4.13-48.38-10.71-77.03-31.32-72.71-72.72,2.85,31.31,26.37,52.7,73.71,64.17l16.42,4.73Z" fill="#c59221"/><polygon points="240.36 409.58 237.66 407.93 237.66 396.84 240.36 398.49 240.36 409.58" fill="#c59221"/><path d="M275.19,406.39c-6.01,3.12-13.06,8.69-20.21,16.49v-15.72c6.48-4.95,13.27-8.71,20.21-11.89v11.12Z" fill="#c59221"/><polygon points="283.2 402.76 280.01 403.64 280.01 393.94 283.2 393.06 283.2 402.76" fill="#c59221"/><polygon points="288.68 401.25 285.49 402.12 285.49 392.43 288.68 391.55 288.68 401.25" fill="#c59221"/><path d="M297.16,397.06c29.96-6.4,66.68-22.76,72.05-56.44,.67-4.58,.66-9.24,.11-13.84l.61-.08c.58,4.64,.6,9.37-.06,14.01-3.26,24.07-24.74,40.24-45.78,49.04-8.61,3.64-17.58,6.37-26.72,8.29l-.2-.98h0Z" fill="#ffb411"/><path d="M254.67,424.1l-.4-.53c-9.96-12.99-23.87-20.91-42.52-24.19-55.77-12.07-79.26-39.02-71.83-82.37l.3-1.77,.66,1.67c12.87,32.9,45.67,50.19,69.93,47.91,15.4-1.45,25.76-10.38,28.42-24.49V127.53h30.88v212.85c2.72,14.63,13.33,23.73,29.09,24.88,24.44,1.78,57.58-16.19,68.56-48.33l.57-1.68,.39,1.73c4.53,20.32,1.25,37.44-9.76,50.89-11.62,14.19-32.26,24.8-61.34,31.51-18.89,3.41-33.19,11.55-42.55,24.18l-.4,.53Zm-114.06-105.16c-6.38,41.69,16.97,67.69,71.33,79.46,18.64,3.28,32.62,11.15,42.71,24.04,9.52-12.54,23.9-20.63,42.75-24.04,28.84-6.66,49.3-17.15,60.77-31.17,10.49-12.82,13.83-29.07,9.93-48.32-11.7,31.54-44.64,49.11-68.99,47.34-16.25-1.19-27.19-10.59-30.01-25.79V128.53h-28.89v211.94c-2.75,14.61-13.43,23.85-29.33,25.35-24.21,2.29-56.79-14.62-70.28-46.88Z" fill="#a3710c"/><path d="M254.66,424.06l-.39-.48c-10.9-13.47-25.2-21.61-42.51-24.2-28.39-6.19-48.76-16.45-60.57-30.5-11.38-13.54-15.18-30.99-11.27-51.88l.99,.11c-1.32,36.19,22.34,59.41,72.35,70.97,13.04,2.25,26.27,8.12,41.57,18.46,13.04-10.27,20.24-12.76,42.56-18.03,29.21-8.03,48.67-18.45,59.45-31.83,10.71-13.3,11.45-28.13,10.89-39.56l.99-.14c4,17.25,1.88,32.56-6.3,45.51-11.07,17.5-32.87,29.92-64.81,36.9-17,2.39-31.31,10.53-42.56,24.2l-.39,.47Zm-114.72-100.52c-2.02,17.78,2.01,32.79,12.02,44.7,11.67,13.88,31.85,24.03,59.99,30.16,17.33,2.59,31.71,10.7,42.72,24.08,11.35-13.59,25.74-21.69,42.76-24.08,31.63-6.92,53.22-19.18,64.14-36.45,7.12-11.26,9.56-24.36,7.29-39.01-.22,25.15-11.18,50.04-71.22,66.54-22.32,5.27-29.41,7.74-42.47,18.07l-.29,.23-.3-.21c-15.31-10.39-28.5-16.27-41.51-18.51-47.55-11-71.53-32.46-73.12-65.52Z" fill="#a3710c"/><g><g><path d="M363.36,186.12c-64,4.24-85.2,10.38-108.51,23.74-18.76-12.31-44.08-17.38-108.93-23.74v-28.4h217.44v28.4Z" fill="#ffb411"/><path d="M254.83,210.44l-.26-.17c-18.07-11.85-42.46-17.16-108.71-23.66l-.45-.04v-29.35h218.44v29.37l-.47,.03c-64.79,4.29-85.77,10.77-108.29,23.67l-.27,.15Zm-108.41-24.78c65.79,6.46,90.28,11.79,108.45,23.6,22.51-12.85,43.62-19.33,107.99-23.62v-27.43H146.42v27.45Z" fill="#a3710c"/></g><g><g><rect x="345.02" y="164.66" width="10.98" height="14.6" fill="#cd9615"/><path d="M356.37,179.64h-11.73v-15.35h11.73v15.35Zm-10.98-.75h10.23v-13.85h-10.23v13.85Z" fill="#cd9615"/></g><g><rect x="315.06" y="164.66" width="5.01" height="17.64" fill="#cd9615"/><path d="M320.45,182.68h-5.76v-18.39h5.76v18.39Zm-5.01-.75h4.26v-16.89h-4.26v16.89Z" fill="#cd9615"/></g><g><rect x="153.97" y="163.44" width="202.6" height="5.72" fill="#cd9615"/><path d="M356.95,169.54H153.6v-6.47h203.35v6.47Zm-202.6-.75h201.85v-4.97H154.35v4.97Z" fill="#cd9615"/></g><g><rect x="154.45" y="163.44" width="2.46" height="15.6" fill="#b8830f"/><path d="M157.41,179.55h-3.46v-16.6h3.46v16.6Zm-2.46-1h1.46v-14.6h-1.46v14.6Z" fill="#b8830f"/></g><g><rect x="192.12" y="163.44" width="5.58" height="19.29" fill="#b8830f"/><path d="M198.2,183.23h-6.58v-20.29h6.58v20.29Zm-5.58-1h4.58v-18.29h-4.58v18.29Z" fill="#b8830f"/></g><g><rect x="212.28" y="163.44" width="2.09" height="23.1" fill="#b8830f"/><path d="M214.87,187.04h-3.09v-24.1h3.09v24.1Zm-2.09-1h1.09v-22.1h-1.09v22.1Z" fill="#b8830f"/></g><g><rect x="216.93" y="163.44" width="2.79" height="24.11" fill="#cd9615"/><path d="M220.1,187.92h-3.54v-24.86h3.54v24.86Zm-2.79-.75h2.04v-23.36h-2.04v23.36Z" fill="#cd9615"/></g><g><rect x="223.53" y="163.44" width="2.79" height="26.25" fill="#cd9615"/><path d="M226.69,190.07h-3.54v-27h3.54v27Zm-2.79-.75h2.04v-25.5h-2.04v25.5Z" fill="#cd9615"/></g><g><rect x="154.45" y="163.79" width="202.13" height="2.09" fill="#b8830f"/><path d="M357.08,166.38H153.95v-3.09h203.13v3.09Zm-202.13-1h201.13v-1.09H154.95v1.09Z" fill="#b8830f"/></g><g><rect x="311.86" y="165.88" width="2.09" height="16.85" fill="#b8830f"/><path d="M314.45,183.23h-3.09v-17.85h3.09v17.85Zm-2.09-1h1.09v-15.85h-1.09v15.85Z" fill="#b8830f"/></g><g><rect x="341.32" y="165.58" width="2.09" height="14.1" fill="#b8830f"/><path d="M343.9,180.18h-3.09v-15.1h3.09v15.1Zm-2.09-1h1.09v-13.1h-1.09v13.1Z" fill="#b8830f"/></g><path d="M254.62,202.57l-.23-.12c-18.45-10.14-42.6-17.86-100.47-22.62l-.46-.04v-16.85h203.6v16.87l-.47,.03c-61.72,3.42-82.07,13.19-101.75,22.63l-.23,.11Zm-100.15-23.7c57.48,4.75,81.69,12.46,100.18,22.57,23.39-11.21,44.5-19.39,101.42-22.59v-14.92H154.47v14.93Z" fill="#a3710c"/><polygon points="153.28 180.13 145.92 186.15 145.92 158.5 153.28 158.5 153.28 180.13" fill="#f9d46b"/><g><rect x="153.28" y="158.5" width="14.04" height="4.94" fill="#f9d46b"/><path d="M167.45,163.57h-14.29v-5.19h14.29v5.19Zm-14.04-.25h13.79v-4.69h-13.79v4.69Z" fill="#f9d46b"/></g><g><rect x="223.95" y="158.14" width="72.75" height="4.94" fill="#f9d46b"/><path d="M296.83,163.2h-73v-5.19h73v5.19Zm-72.75-.25h72.5v-4.69h-72.5v4.69Z" fill="#f9d46b"/></g><g><rect x="216.93" y="157.72" width="2.79" height="5.36" fill="#cd9615"/><path d="M220.1,163.45h-3.54v-6.11h3.54v6.11Zm-2.79-.75h2.04v-4.61h-2.04v4.61Z" fill="#cd9615"/></g></g><g><rect x="212.32" y="157.72" width="2.05" height="5.72" fill="#b8830f"/><path d="M214.87,163.94h-3.05v-6.72h3.05v6.72Zm-2.05-1h1.05v-4.72h-1.05v4.72Z" fill="#b8830f"/></g><g><rect x="211.72" y="188.37" width="2.05" height="5.72" fill="#b8830f"/><path d="M214.27,194.59h-3.05v-6.72h3.05v6.72Zm-2.05-1h1.05v-4.72h-1.05v4.72Z" fill="#b8830f"/></g><g><rect x="222.62" y="190.71" width="2.67" height="5.72" fill="#cd9615"/><path d="M225.66,196.8h-3.42v-6.47h3.42v6.47Zm-2.67-.75h1.92v-4.97h-1.92v4.97Z" fill="#cd9615"/></g><g><rect x="216.02" y="189.02" width="2.67" height="5.72" fill="#cd9615"/><path d="M219.06,195.12h-3.42v-6.47h3.42v6.47Zm-2.67-.75h1.92v-4.97h-1.92v4.97Z" fill="#cd9615"/></g><path d="M254.85,209.68c13.83-7.15,27.91-12.72,42.39-15.79v-7.35c-15.24,3.27-29.21,8.81-42.39,15.79v7.35Z" fill="#cd9615"/><g><polygon points="312.2 190.47 315.06 190.05 315.06 184.33 312.2 184.75 312.2 190.47" fill="#b8830f"/><path d="M311.7,191.05v-6.73l3.86-.56v6.73l-3.86,.56Zm1-5.87v4.71l1.86-.27v-4.71l-1.86,.27Z" fill="#b8830f"/></g><g><polygon points="314.37 190.05 326.69 188.45 326.69 182.73 314.37 184.33 314.37 190.05" fill="#cd9615"/><path d="M313.99,190.48v-6.48l13.08-1.7v6.48l-13.08,1.7Zm.75-5.82v4.97l11.58-1.51v-4.97l-11.58,1.51Z" fill="#cd9615"/></g><g><rect x="312.61" y="158.22" width="2.05" height="4.77" fill="#b8830f"/><path d="M315.16,163.49h-3.05v-5.77h3.05v5.77Zm-2.05-1h1.05v-3.77h-1.05v3.77Z" fill="#b8830f"/></g><g><rect x="315.06" y="158.22" width="2.05" height="4.77" fill="#cd9615"/><path d="M317.49,163.37h-2.8v-5.52h2.8v5.52Zm-2.05-.75h1.3v-4.02h-1.3v4.02Z" fill="#cd9615"/></g><g><rect x="341.86" y="158.22" width="2.05" height="4.77" fill="#b8830f"/><path d="M344.4,163.49h-3.05v-5.77h3.05v5.77Zm-2.05-1h1.05v-3.77h-1.05v3.77Z" fill="#b8830f"/></g><g><rect x="344.31" y="158.22" width="2.05" height="4.77" fill="#cd9615"/><path d="M346.73,163.37h-2.8v-5.52h2.8v5.52Zm-2.05-.75h1.3v-4.02h-1.3v4.02Z" fill="#cd9615"/></g><g><rect x="341.86" y="180.75" width="2.05" height="6.07" fill="#b8830f"/><path d="M344.4,187.32h-3.05v-7.07h3.05v7.07Zm-2.05-1h1.05v-5.07h-1.05v5.07Z" fill="#b8830f"/></g><g><rect x="344.31" y="180.75" width="2.05" height="6.07" fill="#cd9615"/><path d="M346.73,187.2h-2.8v-6.82h2.8v6.82Zm-2.05-.75h1.3v-5.32h-1.3v5.32Z" fill="#cd9615"/></g><g><path d="M254.64,209.68c-6.46-4.29-11.71-6.83-17.75-8.94v-6.65c5.48,2.14,14.38,5.99,17.75,8.24v7.35Z" fill="#f9d46b"/><path d="M254.76,209.91l-.19-.13c-6.11-4.06-11.41-6.73-17.72-8.93l-.08-.03v-6.92l.17,.07c5.24,2.05,14.3,5.93,17.77,8.25l.06,.04v7.65Zm-17.75-9.26c6.23,2.18,11.48,4.82,17.5,8.8v-7.05c-3.45-2.29-12.27-6.07-17.5-8.12v6.37Z" fill="#f9d46b"/></g><path d="M254.83,210.44l-.26-.17c-18.07-11.85-42.46-17.16-108.71-23.66l-.45-.04v-29.35h218.44v29.37l-.47,.03c-64.79,4.29-85.77,10.77-108.29,23.67l-.27,.15Zm-108.41-24.78c65.79,6.46,90.28,11.79,108.45,23.6,22.51-12.85,43.62-19.33,107.99-23.62v-27.43H146.42v27.45Z" fill="#a3710c"/><path d="M254.62,202.57l-.23-.12c-18.45-10.14-42.6-17.86-100.47-22.62l-.46-.04v-16.85h203.6v16.87l-.47,.03c-61.72,3.42-82.07,13.19-101.75,22.63l-.23,.11Zm-100.15-23.7c57.48,4.75,81.69,12.46,100.18,22.57,23.39-11.21,44.5-19.39,101.42-22.59v-14.92H154.47v14.93Z" fill="#a3710c"/></g><g><rect x="297.24" y="148.61" width="14.62" height="50.65" rx="4.5" ry="4.5" fill="#ffb411"/><g><path d="M308.77,150.04v43.36c-.94,3.71-5.6,3.81-7.57,2.33v2.5c2.82,.97,5.11,1.07,7.53-.45,1.63-1.32,3.03-2.74,3.13-5.75v-36.03c-.25-2.82-1.28-4.8-3.09-5.95Z" fill="#cd9615"/><path d="M304.85,199.43c-1.15,0-2.4-.25-3.81-.73l-.34-.12v-3.86l.8,.6c1.07,.8,2.97,1.02,4.42,.51,.85-.3,1.94-.98,2.35-2.51v-44.21l.77,.49c1.94,1.24,3.05,3.37,3.32,6.33v36.07c-.1,3.27-1.69,4.83-3.31,6.14-1.35,.85-2.7,1.27-4.2,1.27Zm-3.15-1.56c2.79,.9,4.77,.74,6.77-.51,1.51-1.23,2.8-2.51,2.89-5.35v-36.01c-.19-2.17-.9-3.83-2.09-4.94l-.02,42.46c-.4,1.56-1.46,2.72-3,3.27-1.45,.51-3.23,.42-4.55-.19v1.27Z" fill="#cd9615"/></g><g><path d="M300.32,197.9v-43.36c.94-3.71,5.22-3.87,7.19-2.39v-2.91c-2.82-.97-4.85-.74-7.19,.72-1.63,1.32-2.99,2.94-3.09,5.96v36.03c.25,2.82,1.28,4.8,3.09,5.95Z" fill="#f9d46b"/><path d="M300.57,198.36l-.38-.25c-1.87-1.19-2.95-3.26-3.2-6.14v-36.05c.1-3.22,1.59-4.86,3.18-6.15,2.48-1.55,4.55-1.75,7.43-.77l.17,.06v3.59l-.4-.3c-1.11-.83-2.87-1.06-4.29-.56-.9,.32-2.06,1.06-2.5,2.81v43.75Zm3.87-49.45c-1.36,0-2.61,.42-3.98,1.27-1.47,1.2-2.87,2.74-2.97,5.75v36.02c.22,2.49,1.09,4.34,2.59,5.47v-42.88c.4-1.59,1.4-2.72,2.83-3.22,1.41-.5,3.13-.34,4.36,.37v-2.27c-1.03-.34-1.96-.52-2.83-.52Z" fill="#f9d46b"/></g><path d="M307.36,199.76h-5.62c-2.76,0-5-2.24-5-5v-41.65c0-2.76,2.24-5,5-5h5.62c2.76,0,5,2.24,5,5v41.65c0,2.76-2.24,5-5,5Zm-5.62-50.65c-2.21,0-4,1.79-4,4v41.65c0,2.21,1.79,4,4,4h5.62c2.21,0,4-1.79,4-4v-41.65c0-2.21-1.79-4-4-4h-5.62Z" fill="#a3710c"/></g><g><rect x="197.7" y="148.61" width="14.62" height="50.65" rx="4.5" ry="4.5" fill="#ffb411"/><g><path d="M209.24,150.04v43.36c-.94,3.71-5.6,3.81-7.57,2.33v2.5c2.82,.97,5.11,1.07,7.53-.45,1.63-1.32,3.03-2.74,3.13-5.75v-36.03c-.25-2.82-1.28-4.8-3.09-5.95Z" fill="#cd9615"/><path d="M205.31,199.43c-1.15,0-2.4-.25-3.81-.73l-.34-.12v-3.86l.8,.6c1.07,.81,2.97,1.03,4.42,.51,.85-.3,1.94-.98,2.35-2.51v-44.21l.77,.49c1.94,1.24,3.05,3.37,3.32,6.33v36.07c-.1,3.27-1.69,4.83-3.31,6.14-1.35,.85-2.7,1.27-4.2,1.27Zm-3.15-1.56c2.79,.9,4.77,.74,6.77-.51,1.51-1.23,2.8-2.51,2.89-5.35v-36.01c-.19-2.17-.9-3.83-2.09-4.94l-.02,42.46c-.4,1.56-1.46,2.72-3,3.27-1.45,.51-3.23,.42-4.56-.19v1.27Z" fill="#cd9615"/></g><g><path d="M200.79,197.9v-43.36c.94-3.71,5.22-3.87,7.19-2.39v-2.91c-2.82-.97-4.85-.74-7.19,.72-1.63,1.32-2.99,2.94-3.09,5.96v36.03c.25,2.82,1.28,4.8,3.09,5.95Z" fill="#f9d46b"/><path d="M201.04,198.36l-.38-.25c-1.87-1.19-2.95-3.26-3.2-6.14v-36.05c.1-3.22,1.59-4.86,3.18-6.15,2.47-1.55,4.55-1.75,7.43-.77l.17,.06v3.59l-.4-.3c-1.11-.83-2.87-1.06-4.29-.56-.9,.32-2.06,1.06-2.5,2.81v43.75Zm3.86-49.45c-1.36,0-2.6,.42-3.97,1.27-1.47,1.2-2.87,2.74-2.97,5.75v36.02c.22,2.49,1.09,4.34,2.59,5.47v-42.88c.4-1.59,1.4-2.72,2.83-3.22,1.41-.5,3.13-.34,4.36,.37v-2.27c-1.03-.34-1.96-.52-2.83-.52Z" fill="#f9d46b"/></g><path d="M207.82,199.76h-5.62c-2.76,0-5-2.24-5-5v-41.65c0-2.76,2.24-5,5-5h5.62c2.76,0,5,2.24,5,5v41.65c0,2.76-2.24,5-5,5Zm-5.62-50.65c-2.21,0-4,1.79-4,4v41.65c0,2.21,1.79,4,4,4h5.62c2.21,0,4-1.79,4-4v-41.65c0-2.21-1.79-4-4-4h-5.62Z" fill="#a3710c"/></g><g><rect x="326.69" y="148.61" width="14.62" height="46.2" rx="4.5" ry="4.5" fill="#ffb411"/><g><path d="M338.23,149.91v39.55c-.94,3.38-5.6,3.48-7.57,2.13v2.28c2.82,.88,5.11,.98,7.53-.41,1.63-1.21,3.03-2.5,3.13-5.25v-32.86c-.25-2.57-1.28-4.38-3.09-5.43Z" fill="#cd9615"/><path d="M334.32,195.02c-1.15,0-2.39-.23-3.82-.68l-.35-.11v-3.59l.78,.54c.97,.66,2.92,1.04,4.62,.41,.78-.28,1.78-.89,2.17-2.2v-40.35l.75,.44c1.95,1.13,3.07,3.09,3.33,5.81v32.91c-.1,3.01-1.7,4.44-3.33,5.65-1.36,.78-2.68,1.16-4.17,1.16Zm-3.17-1.52c2.79,.82,4.78,.68,6.79-.47,1.5-1.12,2.79-2.27,2.87-4.83v-32.84c-.2-1.99-.88-3.47-2.09-4.47l-.02,38.73c-.39,1.39-1.36,2.41-2.81,2.93-1.5,.55-3.36,.48-4.75-.1v1.07Z" fill="#cd9615"/></g><g><path d="M329.78,193.57v-39.55c.94-3.38,5.22-3.53,7.19-2.18v-2.66c-2.82-.88-4.85-.67-7.19,.66-1.63,1.21-2.99,2.68-3.09,5.43v32.86c.25,2.57,1.28,4.38,3.09,5.43Z" fill="#f9d46b"/><path d="M330.03,194l-.38-.22c-1.87-1.09-2.95-2.98-3.21-5.62v-32.89c.1-2.96,1.67-4.51,3.19-5.63,2.47-1.41,4.54-1.6,7.42-.7l.17,.06v3.32l-.39-.27c-1.15-.79-3.03-.98-4.47-.46-.83,.3-1.9,.97-2.33,2.46v39.95Zm3.86-45.1c-1.36,0-2.61,.38-3.98,1.16-1.47,1.09-2.87,2.5-2.96,5.22v32.85c.22,2.26,1.09,3.94,2.59,4.97v-39.16c.49-1.72,1.71-2.49,2.66-2.83,1.46-.53,3.25-.41,4.54,.28v-2.03c-1.03-.31-1.96-.47-2.83-.47Z" fill="#f9d46b"/></g><path d="M336.82,195.31h-5.62c-2.76,0-5-2.24-5-5v-37.2c0-2.76,2.24-5,5-5h5.62c2.76,0,5,2.24,5,5v37.2c0,2.76-2.24,5-5,5Zm-5.62-46.2c-2.21,0-4,1.79-4,4v37.2c0,2.21,1.79,4,4,4h5.62c2.21,0,4-1.79,4-4v-37.2c0-2.21-1.79-4-4-4h-5.62Z" fill="#a3710c"/></g><g><rect x="168.17" y="148.61" width="14.62" height="46.2" rx="4.5" ry="4.5" fill="#ffb411"/><g><path d="M179.71,149.91v39.55c-.94,3.38-5.6,3.48-7.57,2.13v2.28c2.82,.88,5.11,.98,7.53-.41,1.63-1.21,3.03-2.5,3.13-5.25v-32.86c-.25-2.57-1.28-4.38-3.09-5.43Z" fill="#cd9615"/><path d="M175.8,195.02c-1.15,0-2.39-.23-3.82-.68l-.35-.11v-3.59l.78,.54c.97,.66,2.91,1.03,4.62,.41,.78-.28,1.78-.89,2.17-2.2v-40.35l.75,.44c1.95,1.13,3.07,3.09,3.33,5.81v32.91c-.1,3.01-1.7,4.44-3.33,5.65-1.36,.78-2.68,1.16-4.17,1.16Zm-3.17-1.52c2.79,.82,4.78,.67,6.79-.47,1.5-1.12,2.79-2.27,2.88-4.83v-32.84c-.2-1.99-.88-3.47-2.09-4.47l-.02,38.73c-.39,1.39-1.36,2.4-2.81,2.93-1.5,.55-3.36,.48-4.75-.1v1.07Z" fill="#cd9615"/></g><g><path d="M171.26,193.57v-39.55c.94-3.38,5.22-3.53,7.19-2.18v-2.66c-2.82-.88-4.85-.67-7.19,.66-1.63,1.21-2.99,2.68-3.09,5.43v32.86c.25,2.57,1.28,4.38,3.09,5.43Z" fill="#f9d46b"/><path d="M171.51,194l-.38-.22c-1.87-1.09-2.95-2.98-3.21-5.62v-32.89c.1-2.96,1.67-4.51,3.19-5.63,2.47-1.41,4.54-1.6,7.42-.7l.18,.06v3.32l-.39-.27c-1.15-.79-3.03-.98-4.47-.46-.83,.3-1.9,.97-2.33,2.46v39.95Zm3.86-45.1c-1.36,0-2.61,.38-3.98,1.16-1.47,1.09-2.87,2.49-2.96,5.22v32.85c.22,2.26,1.09,3.94,2.59,4.97v-39.16c.49-1.72,1.71-2.49,2.66-2.83,1.45-.53,3.25-.41,4.54,.28v-2.03c-1.03-.31-1.96-.47-2.84-.47Z" fill="#f9d46b"/></g><path d="M178.29,195.31h-5.62c-2.76,0-5-2.24-5-5v-37.2c0-2.76,2.24-5,5-5h5.62c2.76,0,5,2.24,5,5v37.2c0,2.76-2.24,5-5,5Zm-5.62-46.2c-2.21,0-4,1.79-4,4v37.2c0,2.21,1.79,4,4,4h5.62c2.21,0,4-1.79,4-4v-37.2c0-2.21-1.79-4-4-4h-5.62Z" fill="#a3710c"/></g><g><path d="M255.47,190.37c-4.87,0-8.84-3.96-8.84-8.84s3.96-8.84,8.84-8.84,8.84,3.96,8.84,8.84-3.96,8.84-8.84,8.84Zm0-16.68c-4.32,0-7.84,3.52-7.84,7.84s3.52,7.84,7.84,7.84,7.84-3.52,7.84-7.84-3.52-7.84-7.84-7.84Z" fill="#b8830f"/><g><circle cx="254.85" cy="180.87" r="7.5" fill="#ffb411"/><path d="M254.85,188.87c-4.41,0-8-3.59-8-8s3.59-8,8-8,8,3.59,8,8-3.59,8-8,8Zm0-14.99c-3.86,0-7,3.14-7,7s3.14,7,7,7,7-3.14,7-7-3.14-7-7-7Z" fill="#a3710c"/></g><path d="M254.85,187.29c-3.54,0-6.42-2.88-6.42-6.41s2.88-6.42,6.42-6.42,6.41,2.88,6.41,6.42-2.88,6.41-6.41,6.41Zm0-12.08c-3.12,0-5.67,2.54-5.67,5.67s2.54,5.66,5.67,5.66,5.66-2.54,5.66-5.66-2.54-5.67-5.66-5.67Z" fill="#f9d46b"/><path d="M254.85,185.87c-.21,0-.38-.17-.38-.38s.17-.38,.38-.38c2.34,0,4.25-1.91,4.25-4.25s-1.91-4.25-4.25-4.25c-.21,0-.38-.17-.38-.38s.17-.38,.38-.38c2.76,0,5,2.24,5,5s-2.24,5-5,5Z" fill="#cd9615"/><circle cx="252.69" cy="180.87" r="4.16" fill="#f9d46b"/></g><g><g><path d="M254.84,86.26c-14.1,0-25.53,11.44-25.53,25.54s11.42,25.54,25.53,25.54,25.54-11.44,25.54-25.54-11.44-25.54-25.54-25.54Zm0,39.68c-7.8,0-14.12-6.34-14.12-14.14s6.32-14.12,14.12-14.12,14.14,6.32,14.14,14.12-6.32,14.14-14.14,14.14Z" fill="#ffb411"/><path d="M254.84,137.84c-14.35,0-26.03-11.68-26.03-26.04s11.67-26.04,26.03-26.04,26.04,11.68,26.04,26.04-11.68,26.04-26.04,26.04Zm0-51.08c-13.8,0-25.03,11.23-25.03,25.04s11.23,25.04,25.03,25.04,25.04-11.23,25.04-25.04-11.23-25.04-25.04-25.04Zm0,39.68c-8.06,0-14.62-6.57-14.62-14.64s6.56-14.62,14.62-14.62,14.64,6.56,14.64,14.62-6.57,14.64-14.64,14.64Zm0-28.25c-7.51,0-13.62,6.11-13.62,13.62s6.11,13.64,13.62,13.64,13.64-6.12,13.64-13.64-6.12-13.62-13.64-13.62Z" fill="#a3710c"/></g><path d="M254.85,136.1c-3.88,0-7.59-.89-11.03-2.64-.49-.25-.69-.85-.44-1.35,.25-.49,.85-.69,1.35-.44,3.15,1.61,6.56,2.42,10.12,2.42,12.29,0,22.29-10,22.29-22.29,0-8.98-5.34-17.04-13.62-20.54-.51-.21-.75-.8-.53-1.31,.21-.51,.8-.75,1.31-.53,9.01,3.81,14.84,12.6,14.84,22.38,0,13.4-10.9,24.29-24.29,24.29Z" fill="#cd9615"/><path d="M242.26,132.09c-.19,0-.38-.05-.55-.16-6.82-4.46-10.89-11.98-10.89-20.12,0-11.26,7.65-20.89,18.61-23.42,.53-.12,1.07,.21,1.2,.75,.12,.54-.21,1.08-.75,1.2-10.04,2.32-17.06,11.14-17.06,21.47,0,7.46,3.73,14.36,9.99,18.45,.46,.3,.59,.92,.29,1.38-.19,.29-.51,.45-.84,.45Z" fill="#f9d46b"/><path d="M254.85,129.01c-.55,0-1-.45-1-1s.45-1,1-1c8.39,0,15.21-6.82,15.21-15.21,0-3.64-1.3-7.16-3.67-9.91-.36-.42-.31-1.05,.11-1.41,.42-.36,1.05-.31,1.41,.11,2.68,3.12,4.16,7.1,4.16,11.22,0,9.49-7.72,17.21-17.21,17.21Z" fill="#f9d46b"/><path d="M246.45,126.8c-.18,0-.35-.05-.51-.14-5.26-3.17-8.4-8.72-8.4-14.85,0-7.77,5.23-14.64,12.71-16.7,.53-.15,1.08,.17,1.23,.7,.15,.53-.17,1.08-.7,1.23-6.62,1.82-11.24,7.9-11.24,14.77,0,5.43,2.78,10.34,7.43,13.14,.47,.28,.63,.9,.34,1.37-.19,.31-.52,.48-.86,.48Z" fill="#cd9615"/><path d="M253.8,135.76l-6.15-2,2.17-6.64,7.17-1.12c-.58,4.37-1.64,7.64-3.19,9.77Z" fill="#cd9615"/><path d="M254.84,137.84c-14.35,0-26.03-11.68-26.03-26.04s11.67-26.04,26.03-26.04,26.04,11.68,26.04,26.04-11.68,26.04-26.04,26.04Zm0-51.08c-13.8,0-25.03,11.23-25.03,25.04s11.23,25.04,25.03,25.04,25.04-11.23,25.04-25.04-11.23-25.04-25.04-25.04Zm0,39.68c-8.06,0-14.62-6.57-14.62-14.64s6.56-14.62,14.62-14.62,14.64,6.56,14.64,14.62-6.57,14.64-14.64,14.64Zm0-28.25c-7.51,0-13.62,6.11-13.62,13.62s6.11,13.64,13.62,13.64,13.64-6.12,13.64-13.64-6.12-13.62-13.64-13.62Z" fill="#a3710c"/></g><g><path d="M241.08,109.87c1.96,.26,3.29,1.03,4.34,2.41,3.05,4.06-.03,11.54-6.89,16.69-6.86,5.17-14.88,6.04-17.94,1.98-3.05-4.06,.02-11.54,6.87-16.69,.61-.46,1.23-.88,1.85-1.28,.02-4.2,.49-8.19,2.28-11.76-3.41,1.18-6.61,3.02-9.83,5.44-11.94,8.97-16.52,23.04-10.22,31.42,6.29,8.37,21.07,7.88,33.03-1.1,11.94-8.99,16.51-23.06,10.22-31.42-2-2.66-4.85-4.42-8.2-5.31-2.84,1.68-4.91,5.89-5.51,9.61Z" fill="#ffb411"/><path d="M225.12,144.55c-5.8,0-10.88-2.04-13.98-6.15-3.15-4.19-3.79-9.85-1.81-15.95,1.96-6.03,6.27-11.78,12.13-16.18,3.42-2.57,6.68-4.38,9.97-5.52,.19-.07,.41,0,.54,.14,.13,.15,.16,.37,.07,.55-1.52,3.03-2.21,6.58-2.23,11.53,0,.17-.09,.33-.23,.42-.61,.38-1.23,.81-1.82,1.25-3.24,2.44-5.73,5.47-6.99,8.54-1.23,2.98-1.15,5.63,.22,7.44,1.37,1.82,3.88,2.63,7.09,2.27,3.3-.36,6.9-1.91,10.15-4.35,3.25-2.44,5.73-5.47,7-8.54,1.23-2.98,1.16-5.63-.21-7.44-.97-1.3-2.21-1.98-4-2.22-.13-.02-.25-.09-.34-.2-.08-.11-.11-.24-.09-.38,.57-3.5,2.61-8.1,5.75-9.96,.12-.07,.25-.09,.38-.05,3.54,.94,6.47,2.84,8.47,5.49,6.45,8.58,1.82,22.99-10.32,32.12-6.33,4.75-13.46,7.15-19.76,7.16Zm5.52-42.43c-2.81,1.11-5.63,2.74-8.57,4.95-5.7,4.28-9.88,9.85-11.78,15.69-1.88,5.78-1.29,11.12,1.66,15.04,6.12,8.14,20.62,7.6,32.33-1.2,11.7-8.8,16.24-22.58,10.12-30.72-1.82-2.42-4.49-4.17-7.72-5.07-2.62,1.67-4.39,5.53-5.01,8.65,1.79,.34,3.12,1.15,4.15,2.53,1.59,2.11,1.71,5.1,.33,8.43-1.34,3.23-3.94,6.42-7.32,8.96-3.38,2.55-7.16,4.17-10.64,4.55-3.57,.39-6.41-.55-8-2.67-1.59-2.11-1.71-5.1-.34-8.43,1.33-3.24,3.93-6.42,7.32-8.96,.54-.41,1.09-.79,1.65-1.15,.04-4.39,.61-7.73,1.82-10.59Z" fill="#a3710c"/></g><path d="M210.4,125.84c-.13,0-.27-.03-.4-.08-.51-.22-.74-.81-.52-1.31,3.98-9.25,10.43-16.53,18.64-21.06,.48-.27,1.09-.09,1.36,.39,.27,.48,.09,1.09-.39,1.36-5.45,3.01-12.96,8.94-17.77,20.1-.16,.38-.53,.6-.92,.6Z" fill="#f9d46b"/><path d="M218.9,122.43c-.19,0-.38-.05-.55-.17-.46-.31-.59-.93-.28-1.39,2.46-3.72,5.08-6.76,9.82-9.57,.47-.28,1.09-.12,1.37,.35s.12,1.09-.35,1.37c-4.42,2.61-6.86,5.47-9.17,8.95-.19,.29-.51,.45-.83,.45Z" fill="#cd9615"/><path d="M229.46,136.37c-.48,0-.9-.35-.99-.84-.09-.54,.28-1.06,.82-1.15,5.83-.97,14.44-6.53,17.48-12.96,1.54-3.26,1.49-6.32-.12-9.12-.28-.48-.11-1.09,.37-1.37,.48-.28,1.09-.11,1.37,.37,1.94,3.35,2.01,7.15,.2,10.97-3.35,7.09-12.5,13.01-18.96,14.08-.06,0-.11,.01-.17,.01Z" fill="#f9d46b"/><path d="M232.6,132.34c.49,.03-5.94,11.08-7.65,11.44-1.8,.63-11.17-2.95-12.06-4.55,1.49,1.29,9.22-2.49,9.22-4.18,1.28-.33,3.7,.33,6.49-1.57,1.41,.23,2.72-.27,3.99-1.14Z" fill="#cd9615"/><path d="M225.34,143.44c-.26,0-.48-.2-.5-.47-.02-.28,.19-.51,.47-.53,11.71-.75,24.34-9.64,28.76-20.23,1.88-4.51,2.99-11.19-2.41-17.41-.18-.21-.16-.52,.05-.71,.21-.18,.52-.16,.71,.05,4.48,5.15,5.39,11.7,2.58,18.45-4.55,10.91-17.57,20.07-29.62,20.84h-.03Z" fill="#cd9615"/><path d="M245.42,111.81c1.1,.29,7.74-5.28,6.9-8.24-1.24-1.39-5.52-2.33-5.52-2.33-2.28,1.11-3.96,4.53-4.87,8.32l3.5,2.25Z" fill="#cd9615"/><path d="M244.38,135.77l-.61-.79c4.29-3.31,7.77-7.43,9.77-11.6l.9,.43c-2.11,4.37-5.59,8.51-10.06,11.96Z" fill="#b8830f"/><path d="M215.3,139.97c-.83,0-1.68-.08-2.51-.25l.2-.98c2.77,.56,5.82,.05,7.41-1.25,.81-.66,1.22-1.48,1.22-2.44v-.93l.77,.51c2.2,1.44,4.46,1,5.37,.22,.3-.26,.61-.67,.39-1.16l-.62-1.37,1.31,.72c2.09,1.15,5.68-1.08,6.76-2.68l.83,.56c-1.13,1.67-4.59,3.95-7.22,3.32-.06,.49-.34,.97-.8,1.36-1.21,1.04-3.6,1.41-5.88,.26-.19,.92-.7,1.74-1.5,2.4-1.34,1.1-3.47,1.7-5.73,1.7Z" fill="#b8830f"/><path d="M225.12,144.55c-5.8,0-10.88-2.04-13.98-6.15-3.15-4.19-3.79-9.85-1.81-15.95,1.96-6.03,6.27-11.78,12.13-16.18,3.42-2.57,6.68-4.38,9.97-5.52,.19-.07,.41,0,.54,.14,.13,.15,.16,.37,.07,.55-1.52,3.03-2.21,6.58-2.23,11.53,0,.17-.09,.33-.23,.42-.61,.38-1.23,.81-1.82,1.25-3.24,2.44-5.73,5.47-6.99,8.54-1.23,2.98-1.15,5.63,.22,7.44,1.37,1.82,3.88,2.63,7.09,2.27,3.3-.36,6.9-1.91,10.15-4.35,3.25-2.44,5.73-5.47,7-8.54,1.23-2.98,1.16-5.63-.21-7.44-.97-1.3-2.21-1.98-4-2.22-.13-.02-.25-.09-.34-.2-.08-.11-.11-.24-.09-.38,.57-3.5,2.61-8.1,5.75-9.96,.12-.07,.25-.09,.38-.05,3.54,.94,6.47,2.84,8.47,5.49,6.45,8.58,1.82,22.99-10.32,32.12-6.33,4.75-13.46,7.15-19.76,7.16Zm5.52-42.43c-2.81,1.11-5.63,2.74-8.57,4.95-5.7,4.28-9.88,9.85-11.78,15.69-1.88,5.78-1.29,11.12,1.66,15.04,6.12,8.14,20.62,7.6,32.33-1.2,11.7-8.8,16.24-22.58,10.12-30.72-1.82-2.42-4.49-4.17-7.72-5.07-2.62,1.67-4.39,5.53-5.01,8.65,1.79,.34,3.12,1.15,4.15,2.53,1.59,2.11,1.71,5.1,.33,8.43-1.34,3.23-3.94,6.42-7.32,8.96-3.38,2.55-7.16,4.17-10.64,4.55-3.57,.39-6.41-.55-8-2.67-1.59-2.11-1.71-5.1-.34-8.43,1.33-3.24,3.93-6.42,7.32-8.96,.54-.41,1.09-.79,1.65-1.15,.04-4.39,.61-7.73,1.82-10.59Z" fill="#a3710c"/><g><g><path d="M236.02,130.65c-2.26,1.29-4.57,2.23-6.96,2.64,0,0-5.27-8.54-7.85-11.45-.45-3.11,7.2-2.71,8.27-1.36,0,0,4.99,4.14,6.55,10.18Z" fill="#ffb411"/><path d="M228.81,133.83l-.18-.29c-.05-.08-5.27-8.54-7.8-11.38l-.1-.11-.02-.15c-.15-1.05,.41-1.91,1.59-2.42,2.19-.94,6.49-.57,7.53,.62,.5,.42,5.15,4.49,6.68,10.41l.1,.37-.33,.19c-2.49,1.43-4.82,2.31-7.13,2.7l-.33,.06Zm-7.13-12.21c2.37,2.72,6.68,9.59,7.62,11.11,1.98-.38,3.99-1.14,6.13-2.33-1.6-5.61-6.24-9.51-6.28-9.55l-.07-.08c-.52-.66-4.31-1.26-6.38-.37-.94,.4-1.02,.93-1.01,1.21Z" fill="#a3710c"/></g><g><path d="M208.75,128.03c3.64,1.66,6.26,2.93,13.81,6.59,2.46,.56,6.5-1.33,6.5-1.33l-7.85-11.45s-11.25-.96-12.46,6.19Z" fill="#ffb411"/><path d="M223.57,135.22c-.39,0-.77-.03-1.12-.11l-.11-.04-.36-.17c-7.18-3.48-9.87-4.78-13.44-6.41l-.35-.16,.06-.38c1.27-7.51,12.52-6.65,12.99-6.61l.24,.02,8.32,12.13-.53,.25c-.15,.07-3.2,1.48-5.71,1.48Zm-.84-1.08c1.76,.36,4.44-.61,5.58-1.08l-7.37-10.75c-1.54-.08-10.29-.26-11.62,5.42,3.41,1.56,6.16,2.89,13.1,6.26l.3,.15Z" fill="#a3710c"/></g><g><path d="M196.97,137.96c4.84-.35,11.05,.72,17.4,.72,3.25-.02,5.86-1.68,8.19-4.05l-13.81-6.59s-11.62,1.9-11.78,9.93Z" fill="#ffb411"/><path d="M214.37,139.17c-2.89,0-5.72-.22-8.45-.42-3.24-.25-6.31-.48-8.92-.29l-.55,.04v-.55c.18-8.35,11.72-10.33,12.21-10.41l.15-.02,14.58,6.96-.49,.5c-2.8,2.85-5.51,4.19-8.54,4.2Zm-15.3-1.78c2.15,0,4.48,.18,6.92,.36,2.71,.21,5.52,.42,8.37,.42,2.56-.01,4.91-1.1,7.33-3.41l-13.02-6.21c-1.3,.25-10.57,2.27-11.18,8.88,.51-.03,1.04-.04,1.58-.04Z" fill="#a3710c"/></g><g><path d="M187.19,152.02c5.11-3.08,9.83-4.7,13.99-4.21,6.8-2.01,9.01-5.25,8.18-9.32-4.25-.35-8.53-.75-12.39-.54-7.87-.1-8.56,6.97-9.78,14.07Z" fill="#ffb411"/><path d="M186.51,153.02l.4-2.33c1.09-6.51,2.21-13.23,9.9-13.23,.05,0,.11,0,.17,0,3.59-.2,7.64,.14,11.55,.47l1.25,.1,.08,.37c.95,4.62-1.92,7.95-8.52,9.9l-.1,.03h-.1c-3.82-.46-8.29,.89-13.67,4.13l-.94,.56Zm10.33-14.56c-6.87,0-7.83,5.75-8.94,12.4l-.03,.2c5.12-2.94,9.47-4.17,13.27-3.75,5.85-1.75,8.41-4.48,7.8-8.34l-.49-.04c-3.88-.32-7.89-.66-11.45-.46-.05,0-.1,0-.15,0Z" fill="#a3710c"/></g><g><path d="M180.68,166.97c6.9-4.68,12.49-7.31,16.77-7.87,3.4-3,4.47-6.82,3.74-11.29,0,0-6.68-.87-13.99,4.21s-6.52,14.94-6.52,14.94Z" fill="#ffb411"/><path d="M180.25,167.86l-.07-.86c-.03-.41-.73-10.2,6.73-15.39,7.39-5.14,14.06-4.33,14.34-4.3l.37,.05,.06,.37c.79,4.82-.52,8.77-3.9,11.74l-.11,.1-.15,.02c-4.18,.55-9.75,3.17-16.55,7.79l-.71,.48Zm19.77-19.6c-2.15,0-7.19,.46-12.54,4.18-5.73,3.98-6.31,11.12-6.32,13.61,6.52-4.34,11.92-6.83,16.07-7.42,2.97-2.68,4.13-6.07,3.52-10.34-.18-.01-.43-.02-.73-.02Z" fill="#a3710c"/></g><g><path d="M180.99,181.11c3.73-5.01,7.8-8.8,12.32-10.89,2.54-2,5.05-6.76,4.13-11.13,0,0-6.6,.79-16.77,7.87-3.89,7.15-1.52,14.46,.32,14.15Z" fill="#ffb411"/><path d="M180.88,181.62c-.35,0-.89-.16-1.44-.92-1.56-2.18-2.39-8.14,.79-13.98l.06-.1,.1-.07c10.16-7.06,16.72-7.92,16.99-7.95l.46-.05,.09,.45c.92,4.42-1.47,9.38-4.31,11.62l-.1,.06c-4.24,1.96-8.2,5.47-12.13,10.73l-.12,.16-.2,.03c-.06,0-.12,.02-.19,.02Zm.18-14.31c-3.01,5.63-2.01,11.11-.8,12.81,.17,.24,.35,.4,.5,.47,3.96-5.26,7.98-8.79,12.29-10.8,2.43-1.95,4.56-6.27,3.99-10.12-1.66,.33-7.61,1.83-15.98,7.63Z" fill="#a3710c"/></g><g><path d="M181.79,196.85c3.76-6.83,7.52-12.05,11.29-15.34,1.3-3.42,1.19-7.23,.24-11.29-4.74,2.38-8.84,6.02-12.32,10.89-2.34,6.5-2.18,11.79,.79,15.74Z" fill="#ffb411"/><path d="M181.85,197.76l-.47-.62c-3.01-3.99-3.3-9.44-.87-16.21l.06-.12c3.53-4.94,7.73-8.65,12.5-11.04l.57-.28,.15,.62c1.07,4.54,.98,8.32-.26,11.58l-.04,.12-.09,.08c-3.6,3.14-7.36,8.26-11.18,15.2l-.37,.68Zm-.41-16.42c-2.16,6.03-2.06,10.93,.3,14.56,3.71-6.63,7.38-11.57,10.91-14.69,1.07-2.89,1.17-6.25,.32-10.25-4.37,2.31-8.24,5.8-11.52,10.38Z" fill="#a3710c"/></g><g><path d="M189.81,211.47c1.32-7.6,2.77-14.15,4.69-17.09,3.06-5.6,1.44-9.97-1.43-12.87-4.04,4.06-7.9,8.78-11.29,15.34-.67,7.43,2.29,12.08,8.03,14.62Z" fill="#ffb411"/><path d="M190.2,212.19l-.59-.26c-6.19-2.73-8.99-7.82-8.32-15.13l.05-.18c2.98-5.78,6.49-10.55,11.38-15.46l.36-.36,.35,.36c2.14,2.16,5.17,6.78,1.51,13.47-2.06,3.16-3.56,10.71-4.63,16.93l-.11,.63Zm-7.92-15.2c-.58,6.64,1.77,11.14,7.16,13.75,1.6-9.11,3-14.1,4.65-16.63,3-5.49,1.2-9.45-1.02-11.88-4.6,4.68-7.94,9.26-10.79,14.76Z" fill="#a3710c"/></g><g><path d="M199.99,222.83l.79-16.85c-.25-8.11-1.27-14.45-6.28-11.6-2.3,4.91-3.81,10.66-4.69,17.09,1.72,9.01,5.32,12.15,10.17,11.36Z" fill="#ffb411"/><path d="M198.61,223.45c-4.66,0-7.78-3.99-9.29-11.89l-.02-.08v-.08c.93-6.69,2.52-12.49,4.74-17.23l.07-.14,.14-.08c1.5-.85,2.78-.98,3.82-.4,2.52,1.42,3.03,6.81,3.2,12.42l-.81,17.29-.4,.06c-.5,.08-.99,.12-1.46,.12Zm-8.29-11.99c1.52,7.89,4.54,11.48,9.19,10.94l.78-16.43c-.15-4.73-.59-10.36-2.69-11.54-.7-.39-1.58-.29-2.7,.32-2.14,4.61-3.67,10.23-4.57,16.71Z" fill="#a3710c"/></g><g><path d="M211.99,229.27c-1.59-6.32-.87-11.76-1.91-15.89-1.71-3.43-4.35-6.2-9.3-7.39l-.79,16.85c.89,4.83,8.19,8.58,12,6.44Z" fill="#ffb411"/><path d="M209.38,230.39c-1.31,0-2.76-.34-4.2-1.02-3.04-1.42-5.21-3.89-5.68-6.45v-.11l.82-17.45,.59,.14c4.5,1.08,7.56,3.51,9.63,7.65l.04,.1c.47,1.89,.59,4.07,.71,6.37,.15,2.85,.33,6.07,1.19,9.52l.09,.37-.33,.19c-.81,.46-1.79,.68-2.85,.68Zm-8.89-7.59c.43,2.19,2.43,4.41,5.11,5.67,2.16,1.01,4.29,1.2,5.8,.54-.81-3.4-.98-6.54-1.13-9.32-.12-2.33-.23-4.34-.67-6.13-1.83-3.65-4.5-5.86-8.36-6.93l-.76,16.18Z" fill="#a3710c"/></g><g><path d="M223.11,233.72c-2.94-5.09-1.75-10.55-3.58-14.7-1.65-4.83-5-6.32-9.46-5.64,.72,3.89,1.09,13,1.91,15.89,1.51,6.2,8.19,8.98,11.13,4.45Z" fill="#ffb411"/><path d="M219.16,236.46c-.32,0-.64-.03-.97-.08-3.11-.53-5.8-3.34-6.69-6.99-.46-1.63-.78-5.19-1.09-8.64-.25-2.73-.5-5.56-.82-7.28l-.09-.51,.51-.08c5.03-.77,8.4,1.24,10.01,5.98,.8,1.82,1.03,3.89,1.28,6.07,.31,2.82,.64,5.74,2.26,8.54l.15,.27-.17,.26c-1.04,1.6-2.6,2.47-4.37,2.47Zm-8.5-22.66c.28,1.77,.52,4.35,.74,6.85,.31,3.4,.63,6.92,1.07,8.48,.79,3.23,3.21,5.8,5.89,6.26,1.69,.28,3.15-.31,4.16-1.7-1.59-2.9-1.93-5.95-2.23-8.65-.23-2.11-.46-4.1-1.21-5.82-1.41-4.15-4.17-5.91-8.42-5.42Z" fill="#a3710c"/></g><g><path d="M234.16,235.96c-2.3-2.64-2.7-8.12-4.37-13.01-.88-3.62-5.27-4.05-10.25-3.93,1.01,3.93,1.84,12.1,3.58,14.7,2.62,5.32,8.58,4.85,11.05,2.24Z" fill="#ffb411"/><path d="M229.42,238.35c-.37,0-.75-.03-1.12-.08-2.44-.37-4.45-1.9-5.64-4.33-1.19-1.78-1.96-6.11-2.65-9.94-.33-1.85-.64-3.59-.97-4.86l-.16-.61h.63c5-.13,9.77,.31,10.75,4.3,.58,1.71,1.02,3.51,1.43,5.25,.73,3.05,1.42,5.93,2.83,7.54l.3,.34-.31,.33c-1.23,1.3-3.14,2.05-5.1,2.05Zm-9.25-18.85c.28,1.22,.55,2.74,.83,4.32,.67,3.73,1.42,7.95,2.53,9.61,1.08,2.18,2.81,3.52,4.92,3.84,1.82,.27,3.78-.27,5.03-1.36-1.37-1.82-2.04-4.63-2.75-7.6-.41-1.72-.84-3.5-1.42-5.21-.74-3.04-4.17-3.66-9.15-3.6Z" fill="#a3710c"/></g><g><path d="M239.72,237.85v-15.26c-3.23-1.12-6.52-1.39-9.93,.35,.5,2.06,2.76,11.49,4.37,13.01,1.71,1.87,3.56,2.52,5.56,1.89Z" fill="#ffb411"/><path d="M238.27,238.59c-1.58,0-3.08-.77-4.47-2.29-1.11-1.04-2.57-5.32-4.45-13.07l-.13-.54,.35-.18c3.16-1.61,6.44-1.73,10.33-.38l.34,.12v15.98l-.35,.11c-.54,.17-1.08,.26-1.61,.26Zm-7.9-15.37c2.33,9.57,3.59,11.86,4.13,12.37,1.52,1.66,3.06,2.27,4.72,1.88v-14.52c-3.32-1.09-6.15-1-8.85,.27Z" fill="#a3710c"/></g><g><path d="M269.61,228.95v17.01c4.54,1.92,8.39,2.49,11.21,1.11-2.78-6.76-2.07-12.95-3.42-16.05-2.68-1.9-5.29-2.75-7.79-2.07Z" fill="#ffb411"/><path d="M277.22,248.34c-2.19,0-4.78-.64-7.81-1.92l-.31-.13v-17.72l.37-.1c2.51-.69,5.2,.01,8.21,2.14l.11,.08,.06,.13c.59,1.35,.8,3.22,1.04,5.39,.34,3.02,.77,6.77,2.38,10.67l.18,.43-.42,.21c-1.11,.54-2.38,.82-3.81,.82Zm-7.12-2.71c4.32,1.78,7.62,2.17,10.06,1.19-1.51-3.87-1.93-7.53-2.26-10.49-.23-2.02-.43-3.77-.92-4.98-2.55-1.78-4.81-2.43-6.88-2v16.28Z" fill="#a3710c"/></g><g><path d="M289.24,234.52l.56,16.13c-4.04,.46-7.05-.7-8.98-3.58-1.72-4.42-2.65-12.78-3.42-16.05,4.68-2.8,8.25,.39,11.84,3.5Z" fill="#ffb411"/><path d="M288.16,251.25c-3.42,0-6.02-1.31-7.76-3.89l-.05-.1c-1.19-3.05-1.99-7.85-2.63-11.71-.3-1.81-.56-3.37-.81-4.41l-.08-.36,.31-.19c4.92-2.94,8.66,.29,12.27,3.41l.32,.28,.58,16.81-.46,.05c-.58,.07-1.15,.1-1.69,.1Zm-6.9-4.4c1.74,2.56,4.36,3.66,8.02,3.36l-.53-15.45c-3.41-2.95-6.63-5.73-10.78-3.48,.23,1.05,.47,2.48,.74,4.11,.63,3.79,1.42,8.51,2.56,11.46Z" fill="#a3710c"/></g><g><path d="M295.2,253.43c1.93-4.21,3.58-8.24,4.61-11.84-1.1-5.25-4.42-9.25-10.57-7.07l.56,16.13c1.38,2.43,3.19,3.32,5.4,2.78Z" fill="#ffb411"/><path d="M293.98,254.09c-1.87,0-3.42-1.07-4.62-3.19l-.06-.11v-.12l-.57-16.5,.35-.12c2.59-.92,4.86-.84,6.75,.22,2.78,1.56,3.96,4.79,4.47,7.22l.03,.12-.03,.12c-.92,3.24-2.4,7.02-4.63,11.91l-.1,.22-.23,.06c-.46,.11-.91,.17-1.34,.17Zm-3.69-3.58c1.19,2.04,2.69,2.86,4.56,2.49,2.13-4.68,3.55-8.32,4.45-11.43-.67-3.09-2.07-5.37-3.96-6.43-1.55-.87-3.42-.96-5.58-.27l.54,15.64Z" fill="#a3710c"/></g><g><path d="M308.79,249.96c-1.44,3.27-4,6.34-7.36,9.27-3.56-.32-5.64-2.24-6.23-5.8,1.84-4.04,3.52-8.03,4.61-11.84,6.15-3.27,10.52,3.6,8.98,8.37Z" fill="#ffb411"/><path d="M301.59,259.75l-.21-.02c-3.81-.34-6.05-2.44-6.67-6.22l-.02-.15,.06-.14c1.52-3.33,3.41-7.67,4.58-11.77l.06-.2,.19-.1c2.6-1.38,5.15-1.2,7.2,.51,2.34,1.96,3.41,5.59,2.49,8.45l-.02,.05c-1.4,3.19-3.85,6.28-7.49,9.45l-.16,.14Zm-5.88-6.25c.56,3.16,2.38,4.86,5.54,5.21,3.43-3.01,5.74-5.94,7.06-8.93,.79-2.49-.15-5.65-2.19-7.35-1.67-1.39-3.76-1.57-5.9-.49-1.18,4.04-3.02,8.28-4.51,11.56Z" fill="#a3710c"/></g><g><path d="M302.85,267.45c4.56-1.49,8.09-3.6,10.28-6.52,1.4-6.07,.79-10.44-4.34-10.97-1.49,3.38-4.11,6.42-7.36,9.27-.47,3.94-.22,6.97,1.43,8.21Z" fill="#ffb411"/><path d="M302.76,268l-.21-.16c-1.66-1.25-2.18-4.01-1.63-8.67l.02-.19,.14-.13c3.53-3.09,5.9-6.07,7.24-9.1l.15-.33,.36,.04c1.94,.2,3.38,.94,4.29,2.21,1.35,1.89,1.51,4.96,.5,9.37l-.09,.19c-2.18,2.9-5.62,5.09-10.52,6.69l-.25,.08Zm-.86-8.52c-.44,3.89-.09,6.32,1.06,7.4,4.45-1.49,7.71-3.57,9.71-6.17,.92-4.06,.81-6.83-.36-8.46-.69-.96-1.74-1.53-3.22-1.75-1.4,3.01-3.76,5.95-7.19,8.98Z" fill="#a3710c"/></g><g><path d="M301.85,276.45c5.23,.69,9.6-.32,13.09-3.13,3.36-3.18,6.06-10.65-1.8-12.4-2.63,3.19-6.12,5.28-10.28,6.52-1.68,3.97-2.25,7.63-1.01,9.01Z" fill="#ffb411"/><path d="M304.88,277.16c-1,0-2.03-.07-3.1-.21l-.18-.02-.12-.14c-1.33-1.47-.98-5.03,.92-9.54l.09-.22,.23-.07c4.28-1.28,7.56-3.35,10.04-6.36l.2-.24,.3,.07c3.63,.81,4.88,2.76,5.3,4.26,.85,3.07-1,6.85-3.26,8.99-2.87,2.31-6.35,3.47-10.4,3.47Zm-2.77-1.18c5.02,.62,9.22-.4,12.51-3.05,1.97-1.86,3.69-5.31,2.95-7.97-.48-1.72-1.91-2.89-4.25-3.48-2.51,2.94-5.9,5.08-10.09,6.37-1.53,3.71-1.97,6.91-1.11,8.13Z" fill="#a3710c"/></g><g><path d="M297.5,285.25c0,1.7,11.02,2.25,13.19,1.17,3.09-1.48,8.97-8.85,4.24-13.09-2.78,2.44-6.83,3.76-13.09,3.13-2.56,2.33-4.18,5.17-4.34,8.79Z" fill="#ffb411"/><path d="M305.94,287.46c-3.23,0-6.96-.42-8.29-1.24-.43-.27-.65-.59-.65-.97v-.02c.16-3.53,1.63-6.52,4.51-9.14l.17-.15,.22,.02c5.6,.57,9.75-.41,12.71-3l.33-.29,.33,.3c1.52,1.36,2.17,3.18,1.87,5.26-.53,3.76-3.99,7.57-6.23,8.65-.8,.4-2.77,.59-4.97,.59Zm-7.94-2.23c.58,.98,10.22,1.86,12.47,.74,2-.96,5.2-4.51,5.68-7.89,.23-1.61-.19-2.98-1.24-4.07-3.1,2.53-7.33,3.5-12.89,2.97-2.55,2.39-3.87,5.09-4.02,8.25Z" fill="#a3710c"/></g><g><path d="M289.55,293.51c1.01,1.54,8.64,4.5,13.56,4.13,7.22-1.37,9.22-5.38,7.58-11.23-5.86,1.08-10.47,.9-13.19-1.17-3.74,2.07-6.48,4.77-7.95,8.27Z" fill="#ffb411"/><path d="M302.27,298.17c-5.04,0-12.03-2.7-13.13-4.38l-.15-.22,.1-.25c1.45-3.45,4.2-6.31,8.17-8.51l.28-.16,.26,.2c2.45,1.85,6.64,2.2,12.8,1.07l.45-.08,.12,.44c.88,3.13,.71,5.71-.5,7.66-1.29,2.09-3.81,3.5-7.46,4.2-.3,.02-.62,.03-.94,.03Zm-12.14-4.74c1.41,1.45,8.36,4.06,12.95,3.71,3.32-.63,5.6-1.89,6.75-3.73,1-1.62,1.17-3.78,.5-6.43-6,1.05-10.22,.67-12.86-1.15-3.56,2.03-5.96,4.52-7.33,7.59Z" fill="#a3710c"/></g><g><path d="M277.79,298.33c5.19,2.86,7.36,5.88,11.07,7.05,9.32,1.8,14.66-3.03,14.25-7.74-4.48-.17-8.97-.82-13.56-4.13-5.3,.51-10.73,.92-11.76,4.82Z" fill="#ffb411"/><path d="M292.68,306.26c-1.25,0-2.56-.13-3.91-.39-2.18-.68-3.81-1.93-5.7-3.37-1.51-1.15-3.22-2.46-5.52-3.73l-.34-.19,.1-.38c1.09-4.12,6.51-4.64,11.75-5.15l.64-.06,.15,.11c4.29,3.09,8.41,3.85,13.29,4.04l.44,.02,.04,.44c.19,2.12-.72,4.26-2.49,5.85-2.05,1.85-5.01,2.81-8.45,2.81Zm-14.29-8.17c2.18,1.24,3.83,2.49,5.28,3.61,1.81,1.39,3.38,2.58,5.34,3.2,4.7,.9,8.89,.11,11.44-2.2,1.41-1.27,2.19-2.92,2.18-4.58-4.2-.2-8.69-.88-13.22-4.1l-.26,.03c-4.94,.47-9.61,.92-10.76,4.04Z" fill="#a3710c"/></g><g><path d="M261.53,303.42c3.01,1.37,6.73,5.46,10.54,7.52,8.85,.35,17.39,.48,16.8-5.56-2.7-.85-8.08-5.18-11.07-7.05-6.14-.52-12.4-1.41-16.27,5.09Z" fill="#ffb411"/><path d="M277.5,311.58c-1.69,0-3.52-.06-5.45-.13h-.12l-.1-.06c-1.93-1.05-3.8-2.56-5.6-4.03-1.77-1.44-3.45-2.81-4.91-3.47l-.51-.23,.29-.48c3.83-6.45,9.94-5.92,15.84-5.41l1.02,.09,.1,.06c1,.62,2.26,1.52,3.6,2.46,2.64,1.87,5.63,3.99,7.36,4.53l.32,.1,.03,.33c.15,1.52-.24,2.77-1.14,3.73-1.9,2.01-5.73,2.51-10.72,2.51Zm-5.29-1.13c5.76,.23,12.88,.49,15.29-2.07,.65-.69,.94-1.55,.89-2.64-1.9-.72-4.77-2.75-7.31-4.56-1.28-.9-2.48-1.76-3.45-2.36l-.78-.07c-5.7-.5-11.09-.97-14.61,4.46,1.44,.77,2.99,2.03,4.62,3.36,1.74,1.41,3.53,2.88,5.35,3.88Z" fill="#a3710c"/></g><g><path d="M244.62,307.66c1.43,1.96,9.75,4.98,13.51,7.68,5.19,3.34,16.58,.26,13.93-4.4-3.34-1.96-7.41-5.49-10.54-7.52-6.97-.5-12.93,.45-16.9,4.24Z" fill="#ffb411"/><path d="M263.77,317.24c-2.17,0-4.31-.45-5.9-1.48-1.69-1.21-4.29-2.48-6.8-3.71-3.21-1.57-5.99-2.93-6.84-4.1l-.26-.35,.32-.3c3.68-3.51,9.33-4.94,17.28-4.38h.13l.11,.08c1.39,.9,2.92,2.06,4.54,3.29,2.03,1.54,4.13,3.14,5.99,4.22l.12,.07,.07,.12c.8,1.41,.55,2.84-.7,4.03-1.63,1.54-4.86,2.51-8.03,2.51Zm-18.44-9.55c1.03,.95,3.64,2.23,6.17,3.46,2.55,1.25,5.19,2.53,6.92,3.78,3.51,2.26,10.24,1.38,12.69-.94,.88-.83,1.07-1.74,.58-2.69-1.87-1.12-3.95-2.69-5.97-4.22-1.56-1.19-3.04-2.31-4.37-3.18-7.32-.5-12.57,.73-16.03,3.78Z" fill="#a3710c"/></g><g><path d="M231.96,314.97c4.66,1.74,9.34,3.83,14.36,5.72,7.38,.18,12.24-1.08,11.81-5.35-4.57-2.62-12.22-6.18-13.51-7.68-7.4,.22-12.09,2.33-12.66,7.31Z" fill="#ffb411"/><path d="M247.64,321.21c-.43,0-.88,0-1.34-.02l-.16-.03c-2.5-.94-4.94-1.94-7.3-2.91-2.43-1-4.73-1.94-7.06-2.81l-.37-.14,.04-.39c.57-4.97,4.87-7.51,13.15-7.75h.24l.16,.17c.79,.92,4.43,2.82,7.96,4.67,1.89,.99,3.84,2.01,5.42,2.91l.22,.13,.03,.26c.14,1.36-.22,2.51-1.05,3.42-1.57,1.7-4.75,2.5-9.93,2.5Zm-1.23-1.01c5.54,.13,8.96-.58,10.43-2.17,.59-.64,.86-1.42,.81-2.38-1.52-.86-3.37-1.82-5.15-2.76-3.57-1.87-6.95-3.63-8.08-4.72-7.32,.25-11.22,2.38-11.91,6.48,2.22,.84,4.4,1.73,6.71,2.68,2.33,.96,4.73,1.94,7.19,2.87Z" fill="#a3710c"/></g><g><path d="M217.44,324.56c5.31,.1,9.05,.41,12.45,1.59,7.32,1.61,17.06-1.11,16.42-5.46l-14.36-5.72c-9.23-.09-14.52,2.77-14.52,9.59Z" fill="#ffb411"/><path d="M234.4,327.11c-1.58,0-3.15-.15-4.61-.47-3.44-1.19-7.13-1.48-12.35-1.58h-.49v-.5c0-2.74,.83-4.96,2.48-6.59,2.44-2.41,6.53-3.53,12.54-3.5l.18,.04,14.63,5.83,.04,.29c.17,1.17-.29,2.3-1.34,3.28-2.15,2-6.63,3.21-11.07,3.21Zm-16.44-3.04c5.06,.11,8.71,.43,12.11,1.61,5.25,1.16,12.02,.01,14.73-2.51,.72-.67,1.08-1.38,1.06-2.12l-13.99-5.57c-5.6-.07-9.54,1.04-11.73,3.21-1.37,1.36-2.09,3.13-2.18,5.39Z" fill="#a3710c"/></g><g><path d="M204.46,334.68l16.8,.42c7.04-.95,9.95-3.92,8.64-8.95-3.36-1.09-7.5-1.62-12.45-1.59-6.34,.09-10.59,3.59-12.98,10.12Z" fill="#ffb411"/><path d="M221.33,335.6l-17.57-.44,.24-.65c2.51-6.84,7.03-10.36,13.44-10.45,4.96-.05,9.21,.51,12.61,1.61l.26,.08,.07,.26c.59,2.24,.37,4.14-.64,5.65-1.36,2.03-4.19,3.35-8.42,3.92Zm-16.14-1.4l16.09,.41c3.85-.53,6.45-1.7,7.64-3.49,.81-1.2,1-2.74,.57-4.58-3.26-1.01-7.3-1.51-12.03-1.48-5.83,.08-9.85,3.07-12.26,9.14Z" fill="#a3710c"/></g><g><path d="M195.14,346.07c5.55-1.37,12.66,0,17.96-1.17,5.75-2.61,8.18-5.94,8.16-9.8l-16.8-.42c-6.29,2.14-9.4,5.93-9.32,11.39Z" fill="#ffb411"/><path d="M194.65,346.71v-.63c-.08-5.67,3.17-9.67,9.66-11.87l.08-.03h.09l17.28,.44v.48c.03,4.25-2.82,7.7-8.45,10.26l-.1,.03c-2.6,.57-5.66,.54-8.62,.52-3.2-.03-6.5-.06-9.33,.64l-.61,.15Zm9.89-11.53c-5.82,2-8.73,5.36-8.9,10.26,2.79-.58,5.92-.56,8.95-.53,3.02,.03,5.87,.05,8.35-.49,5.06-2.31,7.62-5.2,7.81-8.84l-16.21-.41Z" fill="#a3710c"/></g><g><path d="M187.19,356.88c4-1.24,12.08-.21,19.23-1.38,5.05-1.62,7.06-5.29,6.68-10.6-5.51,1.17-14.97,.36-17.96,1.17-5.65,2.41-8.75,5.83-7.95,10.81Z" fill="#ffb411"/><path d="M186.79,357.53l-.09-.57c-.79-4.86,1.99-8.68,8.24-11.35,1.49-.41,4.19-.44,7.32-.48,3.65-.04,7.78-.09,10.74-.72l.56-.12,.04,.57c.42,5.75-1.94,9.48-7.02,11.11-3.59,.59-7.36,.64-10.68,.68-3.53,.04-6.57,.08-8.55,.7l-.55,.17Zm25.84-12.02c-2.99,.54-6.89,.59-10.36,.63-2.93,.04-5.7,.07-7,.42-5.55,2.37-8.08,5.55-7.66,9.69,2.09-.51,4.97-.54,8.27-.59,3.29-.04,7.01-.09,10.46-.65,4.41-1.42,6.49-4.53,6.29-9.5Z" fill="#a3710c"/></g><g><path d="M184.13,361.08c6.74,2.68,13.72,3.93,17.75,4.25,1.4-1.31,5.02-7.44,4.55-9.83-6.73,1.06-15.1,0-19.23,1.38-1.54,.9-3.63,2.86-3.07,4.2Z" fill="#ffb411"/><path d="M201.88,365.83s-.03,0-.04,0c-4.29-.33-11.24-1.64-17.9-4.28-.12-.05-.22-.15-.28-.27-.71-1.7,1.63-3.86,3.27-4.83,.03-.02,.06-.03,.09-.04,2.29-.76,5.83-.8,9.57-.84,3.28-.03,6.66-.07,9.74-.56,.26-.04,.52,.13,.57,.4,.54,2.68-3.34,9.02-4.7,10.29-.09,.09-.21,.13-.34,.13Zm-17.34-5.12c6.37,2.5,12.97,3.75,17.15,4.11,1.32-1.41,4.22-6.4,4.28-8.74-3,.42-6.23,.46-9.35,.49-3.63,.04-7.07,.07-9.22,.77-1.53,.91-2.97,2.46-2.86,3.37Z" fill="#a3710c"/></g><g><path d="M182.12,389.81c.66,2.13,.26,2.64-.49,3.9-5.99-.26-11.82,1.39-14.36,0-1.76-3.71-1.44-6.36,1.22-10.83,4.2,2.34,9.78,5.31,13.63,6.93Z" fill="#ffb411"/><path d="M170.38,394.77c-1.36,0-2.5-.16-3.35-.63l-.14-.08-.07-.15c-1.81-3.83-1.5-6.68,1.24-11.3l.25-.42,.43,.24c2.59,1.45,9.09,5.02,13.58,6.91l.21,.09,.07,.22c.66,2.15,.32,2.86-.44,4.13l-.25,.43h-.3c-2.44-.12-4.89,.1-7.05,.29-1.56,.14-2.96,.26-4.17,.26Zm-2.73-1.43c1.39,.65,3.91,.43,6.82,.17,2.1-.19,4.48-.4,6.88-.32,.59-.99,.81-1.43,.36-3.02-4.29-1.83-10.25-5.08-13.04-6.63-2.3,4.02-2.55,6.47-1.02,9.79Z" fill="#a3710c"/></g><g><path d="M166.9,402.5c2.91,4.56,9.22,5.19,12.56-.64,1.26-2.19,2.08-4.69,2.17-8.16-5.35,0-11.73,1.09-14.36,0-.96,3.41-1.75,6.46-.37,8.8Z" fill="#ffb411"/><path d="M173.02,406.57c-2.57,0-5.01-1.41-6.54-3.81v-.02c-1.55-2.6-.6-5.95,.31-9.19l.15-.54,.52,.21c1.61,.67,4.92,.45,8.41,.22,1.91-.13,3.89-.26,5.76-.26h.51v.51c-.1,3.22-.81,5.89-2.25,8.39-1.61,2.81-3.99,4.39-6.7,4.46-.06,0-.11,0-.17,0Zm-5.69-4.34c1.37,2.14,3.56,3.4,5.84,3.34,2.35-.06,4.43-1.46,5.86-3.96,1.3-2.25,1.95-4.56,2.09-7.41-1.68,.02-3.45,.14-5.17,.25-3.43,.23-6.44,.42-8.33-.11-.93,3.36-1.44,5.92-.28,7.89Z" fill="#a3710c"/></g><path d="M226.56,129.22c3.3,.07,6.02-.63,8.01-2.26l1.24,2.99-6.75,3.34-2.5-4.07Z" fill="#b8830f"/><path d="M218.19,132.08s6.04-1.7,8.05-2.97c1.71,1.01,2.36,4.37,2.36,4.37l-5.21,1.23-5.21-2.64Z" fill="#b8830f"/><path d="M200.22,217.94l-.23,4.9c.37-.91,2.04,9.12,12,6.44q-.72-4.76-.72-4.76s-7.19,4.05-11.05-6.58Z" fill="#b8830f"/><path d="M299.81,241.59s8.28,2.96,6.88,11.99l2.3-4.45-1.09-5.38-3.5-3.01-4.59,.85Z" fill="#b8830f"/><path d="M192.9,198.28s3.08-5.21,7.08,0c-.83-2.77-1.63-3.9-1.63-3.9l-2.2-.64-1.65,.64-1.6,3.9Z" fill="#b8830f"/><path d="M191.81,217.94s6.51,4.42,8.18-2.57,0,7.47,0,7.47c-2.38,.09-4.44-.36-5.95-1.72l-2.23-3.18Z" fill="#b8830f"/><path d="M218.19,132.08l3.93,2.97-3.93,2.77-6.19,.85s5.98-1.09,6.19-6.6Z" fill="#b8830f"/><path d="M205.47,138.18s.65,6.53-7.83,9.7l3.54-.06,4.3-1.75,3.94-4.86-.06-2.7-3.89-.31Z" fill="#b8830f"/><path d="M198.36,148.4l2.96,.53-.9,6.22-2.98,3.95-2.15,.43s7.18-5.51,3.06-11.13Z" fill="#b8830f"/><path d="M193.37,160.2l4.07-1.1-1,6.95-2.41,3.52-2.34,1.5s6.74-7.22,1.67-10.87Z" fill="#b8830f"/><path d="M189.81,172.23l3.5-2.01,.73,4.98-.3,3.95-.66,2.36-2.09,2.03s3.1-6.86-1.17-11.3Z" fill="#b8830f"/><path d="M189.81,185l3.26-3.49,2.83,4.93v4.29l-2.26,5.28s.75-8.84-3.83-11.01Z" fill="#b8830f"/><path d="M211.42,225.53l1.83,6.73,3.34,3.07,3.84,.45,2.68-2.06-.69-1.87s-6.96,.78-11.01-6.32Z" fill="#b8830f"/><path d="M221.9,230.66l2.64,5.12,4.28,2.05,4.46-1.14,.26-1.61s-6.86,.91-11.64-4.42Z" fill="#b8830f"/><path d="M232.36,232.19l3.03,4.88,4.33,.78v-2.83s-4.95,1.7-7.36-2.83Z" fill="#b8830f"/><path d="M271.27,228.72l-1.67,.23v17.01l6.54,1.87,4.66-.76-.65-1.98s-11.22,6.09-8.89-16.38Z" fill="#b8830f"/><path d="M279.68,243.75l2.22,4.64,4.41,2.36,3.47-.1-.24-2.82s-4.53,3.21-9.87-4.09Z" fill="#b8830f"/><path d="M289.58,244.61v4.45s5.35,.26,6.45,2.51c.78-1.77,1.16-2.7,1.16-2.7,0,0-6.04-.13-7.61-4.26Z" fill="#b8830f"/><path d="M169.79,383.6s9.08,8.62,1.35,10.64c3.16-.17,10.49-.53,10.49-.53l.49-3.9-12.33-6.21Z" fill="#b8830f"/><path d="M175.96,405.36c.06-1.17,4.61-6.99,0-11.13,3.24-.74,5.67-.53,5.67-.53l-1.07,5.81c-.63,2.3-2.26,4.21-4.61,5.84Z" fill="#b8830f"/><path d="M307.5,252.38s5.1,.06,4.15,10.13l1.98-1.46v-6.38l-3.07-3.93h-1.58l-1.49,1.64Z" fill="#b8830f"/><path d="M283.25,302.1s1.03,5.09-14.53,6.59c3.35,2.25,4.46,2.38,4.46,2.38h6.99l6.78-1.62,1.91-4.07-5.62-3.28Z" fill="#b8830f"/><path d="M225.5,324.93s16-1.48,14.31-6.68c2.21,.72,6.52,2.44,6.52,2.44l-1.26,2.9-6.13,2.6-6.97,.29-6.46-1.55Z" fill="#b8830f"/><path d="M310.56,263.49l2.57-2.56,4.31,2.56v6.24l-2.51,3.6-2.67,1.77s7.56-8.61-1.7-11.61Z" fill="#b8830f"/><path d="M307.1,286.92l3.59-.51,4.19-4.04,1.8-4.7-1.75-4.35s-2.81,1.92-3.7,2.22,5.21,2.19-4.13,11.37Z" fill="#b8830f"/><path d="M297.5,297.05l6.35,.44,6.71-3.97,.56-5.05c.44-1.23-.21-1.96-3.39-1.54,0,0-1.07,7.67-10.24,10.12Z" fill="#b8830f"/><path d="M284.49,302.83l5.09,2.67,7.61-.41,4.95-2.99,.97-4.46s-5.21-.04-4.72-.54,5.46,6.19-13.9,5.72Z" fill="#b8830f"/><path d="M225.5,324.93s4.34,4.36-8.05,10.08l3.81,.1,4.98-1.3,3.97-3.26-.2-3.93-4.51-1.69Z" fill="#b8830f"/><path d="M216.81,335.1h4.45l-.55,3.04-4.44,5.04-3.69,1.88-4.37,.41s14.86-6.45,8.61-10.37Z" fill="#b8830f"/><path d="M201.13,355.97l6.2-.79,5.1-4.87,.14-5.24-4.37,.41s2.37,6.56-7.07,10.49Z" fill="#b8830f"/><path d="M206.43,356.43l-4.56,8.9-5.85-.82s9.44-4.2,5.2-8.08c-1.95-1.78,7.19,1,5.2,0Z" fill="#b8830f"/><path d="M200.46,356.42l-.71-.71c4.39-4.42,6.37-7.64,6.22-10.13l1-.06c.17,2.84-1.84,6.2-6.51,10.9Z" fill="#b8830f"/><path d="M206.77,345.95l-.6-.8c6.22-4.68,9.09-8,8.77-10.12l.99-.15c.39,2.59-2.44,6.01-9.16,11.07Z" fill="#b8830f"/><path d="M216.22,335.11l-.51-.86c4.98-2.95,7.6-6.01,8.02-9.38l.99,.12c-.45,3.69-3.23,7-8.5,10.12Z" fill="#cd9615"/><path d="M256.3,314.18s14.73,2.23,12.42-5.49c2.37,1.46,3.74,2.89,3.74,2.89l-2.82,3.94-5.26,1.2-6.22-.6-1.86-1.95Z" fill="#b8830f"/><path d="M241.07,318.26l6.14,2.45,8.06-1.08,2.88-2.54-.43-2.74-3.3-1.18s1.06,9.01-13.35,5.09Z" fill="#b8830f"/><path d="M267.51,308.15l-.21-.98c5.11-1.1,12.18-2.95,14.6-6.18l.8,.6c-2.03,2.7-6.71,4.72-15.19,6.55Z" fill="#b8830f"/><path d="M253.59,313.21l-.11-.99c5.25-.57,11.53-1.64,13.5-4.82l.85,.53c-1.74,2.81-6,4.39-14.24,5.29Z" fill="#b8830f"/><path d="M311.04,275.89l-.96-.27c1.16-4.17,.88-7.95-.82-11.25l.89-.46c1.82,3.53,2.12,7.56,.89,11.97Z" fill="#b8830f"/><path d="M305.45,287.38l-.75-.66c3.75-4.3,5.61-8.07,5.37-10.92l1-.08c.27,3.17-1.62,7.1-5.61,11.67Z" fill="#b8830f"/><path d="M189.11,186.51l-.98-.19c.89-4.69,.5-8.93-1.12-12.28l.9-.44c1.72,3.54,2.14,8,1.21,12.9Z" fill="#b8830f"/><path d="M192.41,198.38c-1.23-6.2-2.52-9.79-4.16-11.63l.75-.67c1.77,1.98,3.13,5.72,4.4,12.1l-.98,.2Z" fill="#b8830f"/><path d="M210.9,223.44c-3.77-.68-7.57-3.29-11.3-7.76l.77-.64c3.57,4.28,7.18,6.78,10.71,7.42l-.18,.98Z" fill="#cd9615"/><path d="M282.79,302.6l-.13-.99c9.58-1.3,14.41-2.83,14.35-4.54l1-.04c.09,2.48-4.32,4.09-15.21,5.57Z" fill="#cd9615"/><path d="M297.8,297.44l-.61-.79c4.85-3.7,7.1-6.95,6.68-9.65l.99-.15c.48,3.14-1.83,6.6-7.07,10.6Z" fill="#cd9615"/></g><g id="j"><path d="M228.81,133.83l-.18-.29c-.05-.08-5.27-8.54-7.8-11.38l-.1-.11-.02-.15c-.15-1.05,.41-1.91,1.59-2.42,2.19-.94,6.49-.57,7.53,.62,.5,.42,5.15,4.49,6.68,10.41l.1,.37-.33,.19c-2.49,1.43-4.82,2.31-7.13,2.7l-.33,.06Zm-7.13-12.21c2.37,2.72,6.68,9.59,7.62,11.11,1.98-.38,3.99-1.14,6.13-2.33-1.6-5.61-6.24-9.51-6.28-9.55l-.07-.08c-.52-.66-4.31-1.26-6.38-.37-.94,.4-1.02,.93-1.01,1.21Z" fill="#a3710c"/><path d="M223.57,135.22c-.39,0-.77-.03-1.12-.11l-.11-.04-.36-.17c-7.18-3.48-9.87-4.78-13.44-6.41l-.35-.16,.06-.38c1.27-7.51,12.52-6.65,12.99-6.61l.24,.02,8.32,12.13-.53,.25c-.15,.07-3.2,1.48-5.71,1.48Zm-.84-1.08c1.76,.36,4.44-.61,5.58-1.08l-7.37-10.75c-1.54-.08-10.29-.26-11.62,5.42,3.41,1.56,6.16,2.89,13.1,6.26l.3,.15Z" fill="#a3710c"/><path d="M214.37,139.17c-2.89,0-5.72-.22-8.45-.42-3.24-.25-6.31-.48-8.92-.29l-.55,.04v-.55c.18-8.35,11.72-10.33,12.21-10.41l.15-.02,14.58,6.96-.49,.5c-2.8,2.85-5.51,4.19-8.54,4.2Zm-15.3-1.78c2.15,0,4.48,.18,6.92,.36,2.71,.21,5.52,.42,8.37,.42,2.56-.01,4.91-1.1,7.33-3.41l-13.02-6.21c-1.3,.25-10.57,2.27-11.18,8.88,.51-.03,1.04-.04,1.58-.04Z" fill="#a3710c"/><path d="M186.51,153.02l.4-2.33c1.09-6.51,2.21-13.23,9.9-13.23,.05,0,.11,0,.17,0,3.59-.2,7.64,.14,11.55,.47l1.25,.1,.08,.37c.95,4.62-1.92,7.95-8.52,9.9l-.1,.03h-.1c-3.82-.46-8.29,.89-13.67,4.13l-.94,.56Zm10.33-14.56c-6.87,0-7.83,5.75-8.94,12.4l-.03,.2c5.12-2.94,9.47-4.17,13.27-3.75,5.85-1.75,8.41-4.48,7.8-8.34l-.49-.04c-3.88-.32-7.89-.66-11.45-.46-.05,0-.1,0-.15,0Z" fill="#a3710c"/><path d="M180.25,167.86l-.07-.86c-.03-.41-.73-10.2,6.73-15.39,7.39-5.14,14.06-4.33,14.34-4.3l.37,.05,.06,.37c.79,4.82-.52,8.77-3.9,11.74l-.11,.1-.15,.02c-4.18,.55-9.75,3.17-16.55,7.79l-.71,.48Zm19.77-19.6c-2.15,0-7.19,.46-12.54,4.18-5.73,3.98-6.31,11.12-6.32,13.61,6.52-4.34,11.92-6.83,16.07-7.42,2.97-2.68,4.13-6.07,3.52-10.34-.18-.01-.43-.02-.73-.02Z" fill="#a3710c"/><path d="M180.88,181.62c-.35,0-.89-.16-1.44-.92-1.56-2.18-2.39-8.14,.79-13.98l.06-.1,.1-.07c10.16-7.06,16.72-7.92,16.99-7.95l.46-.05,.09,.45c.92,4.42-1.47,9.38-4.31,11.62l-.1,.06c-4.24,1.96-8.2,5.47-12.13,10.73l-.12,.16-.2,.03c-.06,0-.12,.02-.19,.02Zm.18-14.31c-3.01,5.63-2.01,11.11-.8,12.81,.17,.24,.35,.4,.5,.47,3.96-5.26,7.98-8.79,12.29-10.8,2.43-1.95,4.56-6.27,3.99-10.12-1.66,.33-7.61,1.83-15.98,7.63Z" fill="#a3710c"/><path d="M181.85,197.76l-.47-.62c-3.01-3.99-3.3-9.44-.87-16.21l.06-.12c3.53-4.94,7.73-8.65,12.5-11.04l.57-.28,.15,.62c1.07,4.54,.98,8.32-.26,11.58l-.04,.12-.09,.08c-3.6,3.14-7.36,8.26-11.18,15.2l-.37,.68Zm-.41-16.42c-2.16,6.03-2.06,10.93,.3,14.56,3.71-6.63,7.38-11.57,10.91-14.69,1.07-2.89,1.17-6.25,.32-10.25-4.37,2.31-8.24,5.8-11.52,10.38Z" fill="#a3710c"/><path d="M190.2,212.19l-.59-.26c-6.19-2.73-8.99-7.82-8.32-15.13l.05-.18c2.98-5.78,6.49-10.55,11.38-15.46l.36-.36,.35,.36c2.14,2.16,5.17,6.78,1.51,13.47-2.06,3.16-3.56,10.71-4.63,16.93l-.11,.63Zm-7.92-15.2c-.58,6.64,1.77,11.14,7.16,13.75,1.6-9.11,3-14.1,4.65-16.63,3-5.49,1.2-9.45-1.02-11.88-4.6,4.68-7.94,9.26-10.79,14.76Z" fill="#a3710c"/><path d="M198.61,223.45c-4.66,0-7.78-3.99-9.29-11.89l-.02-.08v-.08c.93-6.69,2.52-12.49,4.74-17.23l.07-.14,.14-.08c1.5-.85,2.78-.98,3.82-.4,2.52,1.42,3.03,6.81,3.2,12.42l-.81,17.29-.4,.06c-.5,.08-.99,.12-1.46,.12Zm-8.29-11.99c1.52,7.89,4.54,11.48,9.19,10.94l.78-16.43c-.15-4.73-.59-10.36-2.69-11.54-.7-.39-1.58-.29-2.7,.32-2.14,4.61-3.67,10.23-4.57,16.71Z" fill="#a3710c"/><path d="M209.38,230.39c-1.31,0-2.76-.34-4.2-1.02-3.04-1.42-5.21-3.89-5.68-6.45v-.11l.82-17.45,.59,.14c4.5,1.08,7.56,3.51,9.63,7.65l.04,.1c.47,1.89,.59,4.07,.71,6.37,.15,2.85,.33,6.07,1.19,9.52l.09,.37-.33,.19c-.81,.46-1.79,.68-2.85,.68Zm-8.89-7.59c.43,2.19,2.43,4.41,5.11,5.67,2.16,1.01,4.29,1.2,5.8,.54-.81-3.4-.98-6.54-1.13-9.32-.12-2.33-.23-4.34-.67-6.13-1.83-3.65-4.5-5.86-8.36-6.93l-.76,16.18Z" fill="#a3710c"/><path d="M219.16,236.46c-.32,0-.64-.03-.97-.08-3.11-.53-5.8-3.34-6.69-6.99-.46-1.63-.78-5.19-1.09-8.64-.25-2.73-.5-5.56-.82-7.28l-.09-.51,.51-.08c5.03-.77,8.4,1.24,10.01,5.98,.8,1.82,1.03,3.89,1.28,6.07,.31,2.82,.64,5.74,2.26,8.54l.15,.27-.17,.26c-1.04,1.6-2.6,2.47-4.37,2.47Zm-8.5-22.66c.28,1.77,.52,4.35,.74,6.85,.31,3.4,.63,6.92,1.07,8.48,.79,3.23,3.21,5.8,5.89,6.26,1.69,.28,3.15-.31,4.16-1.7-1.59-2.9-1.93-5.95-2.23-8.65-.23-2.11-.46-4.1-1.21-5.82-1.41-4.15-4.17-5.91-8.42-5.42Z" fill="#a3710c"/><path d="M229.42,238.35c-.37,0-.75-.03-1.12-.08-2.44-.37-4.45-1.9-5.64-4.33-1.19-1.78-1.96-6.11-2.65-9.94-.33-1.85-.64-3.59-.97-4.86l-.16-.61h.63c5-.13,9.77,.31,10.75,4.3,.58,1.71,1.02,3.51,1.43,5.25,.73,3.05,1.42,5.93,2.83,7.54l.3,.34-.31,.33c-1.23,1.3-3.14,2.05-5.1,2.05Zm-9.25-18.85c.28,1.22,.55,2.74,.83,4.32,.67,3.73,1.42,7.95,2.53,9.61,1.08,2.18,2.81,3.52,4.92,3.84,1.82,.27,3.78-.27,5.03-1.36-1.37-1.82-2.04-4.63-2.75-7.6-.41-1.72-.84-3.5-1.42-5.21-.74-3.04-4.17-3.66-9.15-3.6Z" fill="#a3710c"/><path d="M238.27,238.59c-1.58,0-3.08-.77-4.47-2.29-1.11-1.04-2.57-5.32-4.45-13.07l-.13-.54,.35-.18c3.16-1.61,6.44-1.73,10.33-.38l.34,.12v15.98l-.35,.11c-.54,.17-1.08,.26-1.61,.26Zm-7.9-15.37c2.33,9.57,3.59,11.86,4.13,12.37,1.52,1.66,3.06,2.27,4.72,1.88v-14.52c-3.32-1.09-6.15-1-8.85,.27Z" fill="#a3710c"/><path d="M277.22,248.34c-2.19,0-4.78-.64-7.81-1.92l-.31-.13v-17.72l.37-.1c2.51-.69,5.2,.01,8.21,2.14l.11,.08,.06,.13c.59,1.35,.8,3.22,1.04,5.39,.34,3.02,.77,6.77,2.38,10.67l.18,.43-.42,.21c-1.11,.54-2.38,.82-3.81,.82Zm-7.12-2.71c4.32,1.78,7.62,2.17,10.06,1.19-1.51-3.87-1.93-7.53-2.26-10.49-.23-2.02-.43-3.77-.92-4.98-2.55-1.78-4.81-2.43-6.88-2v16.28Z" fill="#a3710c"/><path d="M288.16,251.25c-3.42,0-6.02-1.31-7.76-3.89l-.05-.1c-1.19-3.05-1.99-7.85-2.63-11.71-.3-1.81-.56-3.37-.81-4.41l-.08-.36,.31-.19c4.92-2.94,8.66,.29,12.27,3.41l.32,.28,.58,16.81-.46,.05c-.58,.07-1.15,.1-1.69,.1Zm-6.9-4.4c1.74,2.56,4.36,3.66,8.02,3.36l-.53-15.45c-3.41-2.95-6.63-5.73-10.78-3.48,.23,1.05,.47,2.48,.74,4.11,.63,3.79,1.42,8.51,2.56,11.46Z" fill="#a3710c"/><path d="M293.98,254.09c-1.87,0-3.42-1.07-4.62-3.19l-.06-.11v-.12l-.57-16.5,.35-.12c2.59-.92,4.86-.84,6.75,.22,2.78,1.56,3.96,4.79,4.47,7.22l.03,.12-.03,.12c-.92,3.24-2.4,7.02-4.63,11.91l-.1,.22-.23,.06c-.46,.11-.91,.17-1.34,.17Zm-3.69-3.58c1.19,2.04,2.69,2.86,4.56,2.49,2.13-4.68,3.55-8.32,4.45-11.43-.67-3.09-2.07-5.37-3.96-6.43-1.55-.87-3.42-.96-5.58-.27l.54,15.64Z" fill="#a3710c"/><path d="M301.59,259.75l-.21-.02c-3.81-.34-6.05-2.44-6.67-6.22l-.02-.15,.06-.14c1.52-3.33,3.41-7.67,4.58-11.77l.06-.2,.19-.1c2.6-1.38,5.15-1.2,7.2,.51,2.34,1.96,3.41,5.59,2.49,8.45l-.02,.05c-1.4,3.19-3.85,6.28-7.49,9.45l-.16,.14Zm-5.88-6.25c.56,3.16,2.38,4.86,5.54,5.21,3.43-3.01,5.74-5.94,7.06-8.93,.79-2.49-.15-5.65-2.19-7.35-1.67-1.39-3.76-1.57-5.9-.49-1.18,4.04-3.02,8.28-4.51,11.56Z" fill="#a3710c"/><path d="M302.76,268l-.21-.16c-1.66-1.25-2.18-4.01-1.63-8.67l.02-.19,.14-.13c3.53-3.09,5.9-6.07,7.24-9.1l.15-.33,.36,.04c1.94,.2,3.38,.94,4.29,2.21,1.35,1.89,1.51,4.96,.5,9.37l-.09,.19c-2.18,2.9-5.62,5.09-10.52,6.69l-.25,.08Zm-.86-8.52c-.44,3.89-.09,6.32,1.06,7.4,4.45-1.49,7.71-3.57,9.71-6.17,.92-4.06,.81-6.83-.36-8.46-.69-.96-1.74-1.53-3.22-1.75-1.4,3.01-3.76,5.95-7.19,8.98Z" fill="#a3710c"/><path d="M304.88,277.16c-1,0-2.03-.07-3.1-.21l-.18-.02-.12-.14c-1.33-1.47-.98-5.03,.92-9.54l.09-.22,.23-.07c4.28-1.28,7.56-3.35,10.04-6.36l.2-.24,.3,.07c3.63,.81,4.88,2.76,5.3,4.26,.85,3.07-1,6.85-3.26,8.99-2.87,2.31-6.35,3.47-10.4,3.47Zm-2.77-1.18c5.02,.62,9.22-.4,12.51-3.05,1.97-1.86,3.69-5.31,2.95-7.97-.48-1.72-1.91-2.89-4.25-3.48-2.51,2.94-5.9,5.08-10.09,6.37-1.53,3.71-1.97,6.91-1.11,8.13Z" fill="#a3710c"/><path d="M305.94,287.46c-3.23,0-6.96-.42-8.29-1.24-.43-.27-.65-.59-.65-.97v-.02c.16-3.53,1.63-6.52,4.51-9.14l.17-.15,.22,.02c5.6,.57,9.75-.41,12.71-3l.33-.29,.33,.3c1.52,1.36,2.17,3.18,1.87,5.26-.53,3.76-3.99,7.57-6.23,8.65-.8,.4-2.77,.59-4.97,.59Zm-7.94-2.23c.58,.98,10.22,1.86,12.47,.74,2-.96,5.2-4.51,5.68-7.89,.23-1.61-.19-2.98-1.24-4.07-3.1,2.53-7.33,3.5-12.89,2.97-2.55,2.39-3.87,5.09-4.02,8.25Z" fill="#a3710c"/><path d="M302.27,298.17c-5.04,0-12.03-2.7-13.13-4.38l-.15-.22,.1-.25c1.45-3.45,4.2-6.31,8.17-8.51l.28-.16,.26,.2c2.45,1.85,6.64,2.2,12.8,1.07l.45-.08,.12,.44c.88,3.13,.71,5.71-.5,7.66-1.29,2.09-3.81,3.5-7.46,4.2-.3,.02-.62,.03-.94,.03Zm-12.14-4.74c1.41,1.45,8.36,4.06,12.95,3.71,3.32-.63,5.6-1.89,6.75-3.73,1-1.62,1.17-3.78,.5-6.43-6,1.05-10.22,.67-12.86-1.15-3.56,2.03-5.96,4.52-7.33,7.59Z" fill="#a3710c"/><path d="M292.68,306.26c-1.25,0-2.56-.13-3.91-.39-2.18-.68-3.81-1.93-5.7-3.37-1.51-1.15-3.22-2.46-5.52-3.73l-.34-.19,.1-.38c1.09-4.12,6.51-4.64,11.75-5.15l.64-.06,.15,.11c4.29,3.09,8.41,3.85,13.29,4.04l.44,.02,.04,.44c.19,2.12-.72,4.26-2.49,5.85-2.05,1.85-5.01,2.81-8.45,2.81Zm-14.29-8.17c2.18,1.24,3.83,2.49,5.28,3.61,1.81,1.39,3.38,2.58,5.34,3.2,4.7,.9,8.89,.11,11.44-2.2,1.41-1.27,2.19-2.92,2.18-4.58-4.2-.2-8.69-.88-13.22-4.1l-.26,.03c-4.94,.47-9.61,.92-10.76,4.04Z" fill="#a3710c"/><path d="M277.5,311.58c-1.69,0-3.52-.06-5.45-.13h-.12l-.1-.06c-1.93-1.05-3.8-2.56-5.6-4.03-1.77-1.44-3.45-2.81-4.91-3.47l-.51-.23,.29-.48c3.83-6.45,9.94-5.92,15.84-5.41l1.02,.09,.1,.06c1,.62,2.26,1.52,3.6,2.46,2.64,1.87,5.63,3.99,7.36,4.53l.32,.1,.03,.33c.15,1.52-.24,2.77-1.14,3.73-1.9,2.01-5.73,2.51-10.72,2.51Zm-5.29-1.13c5.76,.23,12.88,.49,15.29-2.07,.65-.69,.94-1.55,.89-2.64-1.9-.72-4.77-2.75-7.31-4.56-1.28-.9-2.48-1.76-3.45-2.36l-.78-.07c-5.7-.5-11.09-.97-14.61,4.46,1.44,.77,2.99,2.03,4.62,3.36,1.74,1.41,3.53,2.88,5.35,3.88Z" fill="#a3710c"/><path d="M263.77,317.24c-2.17,0-4.31-.45-5.9-1.48-1.69-1.21-4.29-2.48-6.8-3.71-3.21-1.57-5.99-2.93-6.84-4.1l-.26-.35,.32-.3c3.68-3.51,9.33-4.94,17.28-4.38h.13l.11,.08c1.39,.9,2.92,2.06,4.54,3.29,2.03,1.54,4.13,3.14,5.99,4.22l.12,.07,.07,.12c.8,1.41,.55,2.84-.7,4.03-1.63,1.54-4.86,2.51-8.03,2.51Zm-18.44-9.55c1.03,.95,3.64,2.23,6.17,3.46,2.55,1.25,5.19,2.53,6.92,3.78,3.51,2.26,10.24,1.38,12.69-.94,.88-.83,1.07-1.74,.58-2.69-1.87-1.12-3.95-2.69-5.97-4.22-1.56-1.19-3.04-2.31-4.37-3.18-7.32-.5-12.57,.73-16.03,3.78Z" fill="#a3710c"/><path d="M247.64,321.21c-.43,0-.88,0-1.34-.02l-.16-.03c-2.5-.94-4.94-1.94-7.3-2.91-2.43-1-4.73-1.94-7.06-2.81l-.37-.14,.04-.39c.57-4.97,4.87-7.51,13.15-7.75h.24l.16,.17c.79,.92,4.43,2.82,7.96,4.67,1.89,.99,3.84,2.01,5.42,2.91l.22,.13,.03,.26c.14,1.36-.22,2.51-1.05,3.42-1.57,1.7-4.75,2.5-9.93,2.5Zm-1.23-1.01c5.54,.13,8.96-.58,10.43-2.17,.59-.64,.86-1.42,.81-2.38-1.52-.86-3.37-1.82-5.15-2.76-3.57-1.87-6.95-3.63-8.08-4.72-7.32,.25-11.22,2.38-11.91,6.48,2.22,.84,4.4,1.73,6.71,2.68,2.33,.96,4.73,1.94,7.19,2.87Z" fill="#a3710c"/><path d="M234.4,327.11c-1.58,0-3.15-.15-4.61-.47-3.44-1.19-7.13-1.48-12.35-1.58h-.49v-.5c0-2.74,.83-4.96,2.48-6.59,2.44-2.41,6.53-3.53,12.54-3.5l.18,.04,14.63,5.83,.04,.29c.17,1.17-.29,2.3-1.34,3.28-2.15,2-6.63,3.21-11.07,3.21Zm-16.44-3.04c5.06,.11,8.71,.43,12.11,1.61,5.25,1.16,12.02,.01,14.73-2.51,.72-.67,1.08-1.38,1.06-2.12l-13.99-5.57c-5.6-.07-9.54,1.04-11.73,3.21-1.37,1.36-2.09,3.13-2.18,5.39Z" fill="#a3710c"/><path d="M221.33,335.6l-17.57-.44,.24-.65c2.51-6.84,7.03-10.36,13.44-10.45,4.96-.05,9.21,.51,12.61,1.61l.26,.08,.07,.26c.59,2.24,.37,4.14-.64,5.65-1.36,2.03-4.19,3.35-8.42,3.92Zm-16.14-1.4l16.09,.41c3.85-.53,6.45-1.7,7.64-3.49,.81-1.2,1-2.74,.57-4.58-3.26-1.01-7.3-1.51-12.03-1.48-5.83,.08-9.85,3.07-12.26,9.14Z" fill="#a3710c"/><path d="M194.65,346.71v-.63c-.08-5.67,3.17-9.67,9.66-11.87l.08-.03h.09l17.28,.44v.48c.03,4.25-2.82,7.7-8.45,10.26l-.1,.03c-2.6,.57-5.66,.54-8.62,.52-3.2-.03-6.5-.06-9.33,.64l-.61,.15Zm9.89-11.53c-5.82,2-8.73,5.36-8.9,10.26,2.79-.58,5.92-.56,8.95-.53,3.02,.03,5.87,.05,8.35-.49,5.06-2.31,7.62-5.2,7.81-8.84l-16.21-.41Z" fill="#a3710c"/><path d="M186.79,357.53l-.09-.57c-.79-4.86,1.99-8.68,8.24-11.35,1.49-.41,4.19-.44,7.32-.48,3.65-.04,7.78-.09,10.74-.72l.56-.12,.04,.57c.42,5.75-1.94,9.48-7.02,11.11-3.59,.59-7.36,.64-10.68,.68-3.53,.04-6.57,.08-8.55,.7l-.55,.17Zm25.84-12.02c-2.99,.54-6.89,.59-10.36,.63-2.93,.04-5.7,.07-7,.42-5.55,2.37-8.08,5.55-7.66,9.69,2.09-.51,4.97-.54,8.27-.59,3.29-.04,7.01-.09,10.46-.65,4.41-1.42,6.49-4.53,6.29-9.5Z" fill="#a3710c"/><path d="M201.88,365.83s-.03,0-.04,0c-4.29-.33-11.24-1.64-17.9-4.28-.12-.05-.22-.15-.28-.27-.71-1.7,1.63-3.86,3.27-4.83,.03-.02,.06-.03,.09-.04,2.29-.76,5.83-.8,9.57-.84,3.28-.03,6.66-.07,9.74-.56,.26-.04,.52,.13,.57,.4,.54,2.68-3.34,9.02-4.7,10.29-.09,.09-.21,.13-.34,.13Zm-17.34-5.12c6.37,2.5,12.97,3.75,17.15,4.11,1.32-1.41,4.22-6.4,4.28-8.74-3,.42-6.23,.46-9.35,.49-3.63,.04-7.07,.07-9.22,.77-1.53,.91-2.97,2.46-2.86,3.37Z" fill="#a3710c"/><path d="M170.38,394.77c-1.36,0-2.5-.16-3.35-.63l-.14-.08-.07-.15c-1.81-3.83-1.5-6.68,1.24-11.3l.25-.42,.43,.24c2.59,1.45,9.09,5.02,13.58,6.91l.21,.09,.07,.22c.66,2.15,.32,2.86-.44,4.13l-.25,.43h-.3c-2.44-.12-4.89,.1-7.05,.29-1.56,.14-2.96,.26-4.17,.26Zm-2.73-1.43c1.39,.65,3.91,.43,6.82,.17,2.1-.19,4.48-.4,6.88-.32,.59-.99,.81-1.43,.36-3.02-4.29-1.83-10.25-5.08-13.04-6.63-2.3,4.02-2.55,6.47-1.02,9.79Z" fill="#a3710c"/><path d="M173.02,406.57c-2.57,0-5.01-1.41-6.54-3.81v-.02c-1.55-2.6-.6-5.95,.31-9.19l.15-.54,.52,.21c1.61,.67,4.92,.45,8.41,.22,1.91-.13,3.89-.26,5.76-.26h.51v.51c-.1,3.22-.81,5.89-2.25,8.39-1.61,2.81-3.99,4.39-6.7,4.46-.06,0-.11,0-.17,0Zm-5.69-4.34c1.37,2.14,3.56,3.4,5.84,3.34,2.35-.06,4.43-1.46,5.86-3.96,1.3-2.25,1.95-4.56,2.09-7.41-1.68,.02-3.45,.14-5.17,.25-3.43,.23-6.44,.42-8.33-.11-.93,3.36-1.44,5.92-.28,7.89Z" fill="#a3710c"/></g></g></g><text transform="translate(522.77 145.91)" font-family="Magistral-Bold, Magistral" stroke="#000" stroke-miterlimit="10"><tspan fill="#2a8bdf" font-size="60"><tspan x="0" y="0">RCN</tspan></tspan><tspan fill="#333" font-size="155"><tspan x="0" y="129.71">VIRT</tspan><tspan x="387.81" y="129.71" letter-spacing="0em">U</tspan><tspan x="504.37" y="129.71">AL </tspan></tspan><tspan fill="#333" font-size="155"><tspan x="0" y="259.42">FLE</tspan><tspan x="305.97" y="259.42" letter-spacing="0em">E</tspan><tspan x="413.07" y="259.42">T</tspan></tspan></text></svg>